<?xml version="1.0" standalone="no"?>
  <!DOCTYPE svg PUBLIC "-//W3C//DTD SVG 1.1//EN" "http://www.w3.org/Graphics/SVG/1.1/DTD/svg11.dtd" >
  <svg>
  <metadata>
  Created by font-carrier
  </metadata>
  <defs>
  <font id="Cyrvetica-ExtraOutline" horiz-adv-x="1134" vert-adv-y="1134" >
    <font-face
      
      font-family="Cyrvetica Extra Outline"
      
      font-weight="400"
      
      font-stretch="normal"
      
      units-per-em="1000"
      
      ascent="945"
      
      descent="-223"
      
    />
      <missing-glyph />

      

      
      <glyph glyph-name="uni21" unicode="&#x21;" d="M45 728L245 728L245 484L211 218L79 218L45 484L45 728M245 0L45 0L45 183L245 183L245 0M225 708L65 708L65 485L97 238L193 238L225 485L225 708M65 20L225 20L225 163L65 163L65 20Z"  horiz-adv-x="285" vert-adv-y="1000"  />

      
      <glyph glyph-name="uni22" unicode="&#x22;" d="M197 728L317 728L317 458L197 458L197 728M20 728L140 728L140 458L20 458L20 728M297 708L217 708L217 478L297 478L297 708M120 708L40 708L40 478L120 478L120 708Z"  horiz-adv-x="337" vert-adv-y="1000"  />

      
      <glyph glyph-name="uni23" unicode="&#x23;" d="M78 0L107 187L0 187L22 326L129 326L140 391L34 391L54 530L162 530L190 717L328 717L299 530L345 530L374 717L511 717L482 530L589 530L568 391L462 391L450 326L556 326L534 187L427 187L400 0L261 0L290 187L244 187L215 0L78 0M323 391L278 391L267 326L311 326L323 391M130 207L101 20L198 20L227 207L313 207L284 20L383 20L410 207L517 207L533 306L426 306L445 411L551 411L566 510L459 510L488 697L391 697L362 510L276 510L305 697L207 697L179 510L71 510L57 411L164 411L146 306L39 306L23 207L130 207M261 411L347 411L328 306L243 306L261 411Z"  horiz-adv-x="589" vert-adv-y="1000"  />

      
      <glyph glyph-name="uni24" unicode="&#x24;" d="M250 144L250 277Q137 303 88 338Q10 393 10 496Q10 586 78.50 646.50Q147 707 250 707L250 748L332 748L332 705Q437 691 507.50 624.50Q578 558 578 470L389 470Q389 499 374 520Q359 541 332 552L332 413Q432 389 453 382Q520 359 556 323Q600 279 600 210Q600 100 518 42Q446-9 332-9L332-57L250-57L250-7Q140 5 69 70Q-2 135-2 228L184 228Q195 162 250 144M250 438L250 555Q200 540 200 496Q200 476 212.50 462.50Q225 449 250 438M332 258L332 140Q366 145 386 159Q406 173 406 199Q406 221 387.50 234Q369 247 332 258M270 293L270 116Q221 132 196 156.50Q171 181 167 208L18 208Q18 134 86.50 79Q155 24 270 11L270-37L312-37L312 10Q434 10 502 56Q578 107 578 210Q578 272 539 310Q508 340 440 363Q405 375 312 397L312 582Q359 563 384 536.50Q409 510 409 490L556 490Q556 559 491 614Q422 673 312 688L312 728L270 728L270 689Q161 689 95.50 634.50Q30 580 30 496Q30 423 72 379Q121 327 270 293M270 582L270 408Q180 446 180 496Q180 556 270 582M312 117L312 285Q370 268 398 248.50Q426 229 426 199Q426 165 395.50 145Q365 125 312 117Z"  horiz-adv-x="584" vert-adv-y="1000"  />

      
      <glyph glyph-name="uni25" unicode="&#x25;" d="M169 431Q110 431 65 478Q20 525 20 585Q20 647 63.50 692.50Q107 738 166 738Q223 738 269 691Q315 644 315 584Q315 522 270.50 476.50Q226 431 169 431M169 543Q186 543 197 555Q208 567 208 584Q208 602 196 614Q184 626 166 626Q150 626 138.50 613.50Q127 601 127 584Q127 567 139 555Q151 543 169 543M587 728L180 0L70 0L477 728L587 728M501-10Q442-10 397 37Q352 84 352 144Q352 206 395.50 251.50Q439 297 498 297Q555 297 601 250Q647 203 647 143Q647 81 602.50 35.50Q558-10 501-10M501 102Q518 102 529 114Q540 126 540 143Q540 161 528 173Q516 185 498 185Q482 185 470.50 172.50Q459 160 459 143Q459 126 471 114Q483 102 501 102M169 451Q220 451 257.50 489.50Q295 528 295 584Q295 637 256.50 677.50Q218 718 166 718Q113 718 76.50 679.50Q40 641 40 585Q40 532 78.50 491.50Q117 451 169 451M169 523Q145 523 126 541Q107 559 107 584Q107 606 125 626Q143 646 166 646Q190 646 209 627Q228 608 228 584Q228 562 210.50 542.50Q193 523 169 523M169 20L553 708L489 708L105 20L169 20M501 10Q552 10 589.50 48.50Q627 87 627 143Q627 196 588.50 236.50Q550 277 498 277Q445 277 408.50 238.50Q372 200 372 144Q372 91 410.50 50.50Q449 10 501 10M501 82Q477 82 458 100Q439 118 439 143Q439 165 457 185Q475 205 498 205Q522 205 541 186Q560 167 560 143Q560 121 542.50 101.50Q525 82 501 82Z"  horiz-adv-x="672" vert-adv-y="1000"  />

      
      <glyph glyph-name="uni26" unicode="&#x26;" d="M485 401L665 401Q665 327 645 268Q625 209 588 160L726 0L499 0L463 43Q420 11 369.50-4.50Q319-20 260-20Q161-20 90 40Q15 103 15 201Q15 267 59 322Q93 364 163 411Q134 445 119.50 478.50Q105 512 105 553Q105 627 170 677.50Q235 728 314 728Q406 728 461 687Q523 641 523 553Q523 499 490 452Q464 415 412 377L471 304Q477 318 481 342Q485 366 485 401M343 553Q343 587 314 587Q285 587 285 553Q285 536 293 522Q298 513 315 496Q331 510 337 520.50Q343 531 343 553M365 164L268 285Q242 268 230 251Q215 230 215 201Q215 176 231.50 157.50Q248 139 279 139Q324 139 365 164M645 381L505 381Q505 353 499.50 330Q494 307 476 266L383 381Q444 425 471 461Q503 504 503 553Q503 632 449 672Q400 708 314 708Q239 708 182 664.50Q125 621 125 553Q125 513 138.50 483.50Q152 454 193 407Q112 353 78 313Q35 262 35 201Q35 110 100.50 55Q166 0 260 0Q316 0 365.50 16Q415 32 466 70L508 20L682 20L562 159Q604 214 624.50 268Q645 322 645 381M363 553Q363 528 352 510Q341 492 314 469Q289 494 277 512.50Q265 531 265 553Q265 573 278 590Q291 607 314 607Q338 607 350.50 590.50Q363 574 363 553M272 312L395 159Q329 119 279 119Q243 119 219 145Q195 171 195 201Q195 235 214 260.50Q233 286 272 312Z"  horiz-adv-x="708" vert-adv-y="1000"  />

      
      <glyph glyph-name="uni27" unicode="&#x27;" d="M30 545L30 728L230 728L230 559Q230 489 173 437Q116 385 30 385L30 484Q63 492 81.50 507.50Q100 523 105 545L30 545M50 708L50 565L131 565Q120 522 99.50 498.50Q79 475 50 468L50 407Q116 407 163 452Q210 497 210 559L210 708L50 708Z"  horiz-adv-x="260" vert-adv-y="1000"  />

      
      <glyph glyph-name="uni28" unicode="&#x28;" d="M15 349Q15 473 63 593Q108 706 202 828L359 828Q280 695 241 580Q202 465 202 352Q202 237 242 123Q277 22 359-120L202-120Q108 8 64 112Q15 229 15 349M35 349Q35 232 81 121Q122 22 212-100L324-100Q254 22 221 120Q182 235 182 352Q182 468 220 585Q255 692 324 808L212 808Q124 694 81 586Q35 470 35 349Z"  horiz-adv-x="350" vert-adv-y="1000"  />

      
      <glyph glyph-name="uni29" unicode="&#x29;" d="M335 348Q335 227 287 112Q245 12 148-120L-9-120Q73 22 108 122Q148 235 148 351Q148 466 110.50 578Q73 690-9 827L148 827Q239 708 287 589Q335 470 335 348M315 348Q315 468 270 581Q225 694 138 807L26 807Q96 690 130 585Q168 469 168 351Q168 233 130 120Q99 27 26-100L138-100Q228 22 269 120Q315 231 315 348Z"  horiz-adv-x="350" vert-adv-y="1000"  />

      
      <glyph glyph-name="uni2a" unicode="&#x2a;" d="M420 535L320 502L390 429L278 339L213 425L152 336L41 422L107 501L5 534L50 664L147 622L147 728L280 728L280 624L371 667L420 535M284 511L394 547L360 640L260 592L260 708L167 708L167 592L62 637L31 547L141 511L70 425L147 365L212 459L282 367L360 431L284 511Z"  horiz-adv-x="424" vert-adv-y="1000"  />

      
      <glyph glyph-name="uni2b" unicode="&#x2b;" d="M607 300L385 300L385 80L237 80L237 300L15 300L15 438L237 438L237 660L385 660L385 438L607 438L607 300M365 320L587 320L587 418L365 418L365 640L257 640L257 418L35 418L35 320L257 320L257 100L365 100L365 320Z"  horiz-adv-x="622" vert-adv-y="1000"  />

      
      <glyph glyph-name="uni2c" unicode="&#x2c;" d="M30 0L30 183L230 183L230 14Q230-56 173-108Q116-160 30-160L30-61Q63-53 81.50-37.50Q100-22 105 0L30 0M50 163L50 20L131 20Q120-23 99.50-46.50Q79-70 50-77L50-138Q116-138 163-93Q210-48 210 14L210 163L50 163Z"  horiz-adv-x="260" vert-adv-y="1000"  />

      
      <glyph glyph-name="uni2d" unicode="&#x2d;" d="M375 248L5 248L5 398L375 398L375 248M25 268L355 268L355 378L25 378L25 268Z"  horiz-adv-x="380" vert-adv-y="1000"  />

      
      <glyph glyph-name="uni2e" unicode="&#x2e;" d="M230 0L30 0L30 183L230 183L230 0M50 20L210 20L210 163L50 163L50 20Z"  horiz-adv-x="260" vert-adv-y="1000"  />

      
      <glyph glyph-name="uni2f" unicode="&#x2f;" d="M360 748L97-20L-30-20L232 748L360 748M83 0L332 728L246 728L-2 0L83 0Z"  horiz-adv-x="330" vert-adv-y="1000"  />

      
      <glyph glyph-name="uni30" unicode="&#x30;" d="M277-20Q138-20 64 103Q3 205 3 346Q3 482 69 581Q146 697 278 697Q410 697 487 583Q554 483 554 346Q554 207 490 104Q413-20 277-20M278 141Q325 141 342 196Q354 234 354 308L354 387Q354 452 341 487Q323 536 278 536Q235 536 217 487Q203 450 203 387L203 306Q203 210 222 175.50Q241 141 278 141M277 0Q403 0 474 115Q534 213 534 346Q534 478 472 571Q401 677 278 677Q155 677 84 570Q23 478 23 346Q23 208 78 115Q146 0 277 0M278 121Q220 121 198 185Q183 228 183 306L183 387Q183 478 211 520Q235 556 278 556Q333 556 357 497Q374 456 374 387L374 308Q374 230 359 187Q336 121 278 121Z"  horiz-adv-x="560" vert-adv-y="1000"  />

      
      <glyph glyph-name="uni31" unicode="&#x31;" d="M235 0L235 449L67 449L67 587L139 587Q186 587 224 619Q267 655 267 707L423 707L423 0L235 0M255 469L255 20L403 20L403 687L286 687Q286 639 237.50 603Q189 567 139 567L87 567L87 469L255 469Z"  horiz-adv-x="560" vert-adv-y="1000"  />

      
      <glyph glyph-name="uni32" unicode="&#x32;" d="M245 158L541 158L541 0L13 0L13 78Q13 164 100 240Q102 242 263 355Q352 418 352 466Q352 499 335 521Q315 547 279 547Q240 547 221.50 513.50Q203 480 203 422L13 422Q13 550 85.50 628.50Q158 707 279 707Q389 707 466 651Q552 588 552 481Q552 367 437 287Q341 222 245 158M521 20L521 138L203 138L203 147Q253 196 351.50 258Q450 320 478 349Q532 404 532 481Q532 580 454 636Q383 687 279 687Q166 687 99.50 618.50Q33 550 33 442L183 442Q183 492 205 526Q231 567 279 567Q323 567 349 534Q372 504 372 466Q372 408 285 344Q203 286 122 229Q33 155 33 78L33 20L521 20Z"  horiz-adv-x="560" vert-adv-y="1000"  />

      
      <glyph glyph-name="uni33" unicode="&#x33;" d="M211 287L211 427L260 427Q297 427 317 444Q337 461 337 489Q337 515 320 533Q303 551 275 551Q240 551 220 529.50Q200 508 200 459L22 459Q22 580 96 646Q164 707 275 707Q380 707 450 658Q532 601 532 497Q532 458 507 421Q482 384 452 368L453 365Q487 358 521 318Q561 271 561 219Q561 109 473 46Q394-10 275-10Q164-10 91 54Q10 125 10 251L192 251Q192 200 214.50 174Q237 148 274 148Q309 148 335 168Q361 188 361 220Q361 253 332.50 270Q304 287 260 287L211 287M231 407L231 307L260 307Q312 307 348.50 282.50Q385 258 385 220Q385 180 350.50 154Q316 128 274 128Q232 128 202 158Q172 188 172 231L34 231Q34 130 105 68Q172 10 275 10Q389 10 461 60Q541 116 541 219Q541 263 511 302Q478 346 421 365Q469 392 492 429Q512 461 512 497Q512 591 439 642Q374 687 275 687Q177 687 111.50 628.50Q46 570 46 479L180 479Q180 520 207.50 545.50Q235 571 275 571Q309 571 335 546Q361 521 361 489Q361 455 332 431Q303 407 260 407L231 407Z"  horiz-adv-x="560" vert-adv-y="1000"  />

      
      <glyph glyph-name="uni34" unicode="&#x34;" d="M290 0L290 140L0 140L0 299L263 697L480 697L480 298L560 298L560 140L480 140L480 0L290 0M290 298L290 484L165 298L290 298M310 160L310 20L460 20L460 160L540 160L540 278L460 278L460 677L274 677L20 293L20 160L310 160M310 278L127 278L308 546L310 278Z"  horiz-adv-x="560" vert-adv-y="1000"  />

      
      <glyph glyph-name="uni35" unicode="&#x35;" d="M78 697L526 697L526 549L223 549L215 466Q232 477 254 481.50Q276 486 301 486Q400 486 477 412Q554 338 554 241Q554 131 468 59Q386-10 271-10Q162-10 89 51Q12 115 2 225L189 225Q195 187 217.50 167.50Q240 148 272 148Q308 148 332 175Q356 202 356 241Q356 273 329.50 299.50Q303 326 270 326Q224 326 198 292L21 292L78 697M506 677L95 677L44 312L188 312Q199 326 222.50 336Q246 346 270 346Q309 346 342.50 312.50Q376 279 376 241Q376 197 345.50 162.50Q315 128 272 128Q237 128 206.50 150.50Q176 173 172 205L24 205Q31 117 100 63.50Q169 10 271 10Q379 10 456.50 74.50Q534 139 534 241Q534 330 464 398Q394 466 301 466Q277 466 253 458.50Q229 451 191 427L205 569L506 569L506 677Z"  horiz-adv-x="560" vert-adv-y="1000"  />

      
      <glyph glyph-name="uni36" unicode="&#x36;" d="M284-20Q145-20 73 82Q9 172 9 316Q9 472 70 574Q144 697 285 697Q401 697 470.50 645.50Q540 594 548 499L358 499Q358 519 335 534Q312 549 284 549Q250 549 229.50 521.50Q209 494 209 447Q250 474 308 474Q410 474 479 404Q548 334 548 230Q548 127 473.50 53.50Q399-20 284-20M284 139Q316 139 337 165Q358 191 358 226Q358 265 337.50 290.50Q317 316 284 316Q251 316 230 290.50Q209 265 209 228Q209 191 230 165Q251 139 284 139M284 0Q392 0 460 66Q528 132 528 230Q528 328 466 391Q404 454 308 454Q279 454 248 444Q217 434 189 410Q189 487 215.50 528Q242 569 284 569Q315 569 346.50 551.50Q378 534 378 519L528 519Q520 585 458 629Q391 677 285 677Q160 677 90 563Q29 463 29 316Q29 178 87 95Q154 0 284 0M284 119Q244 119 216.50 151.50Q189 184 189 228Q189 270 216.50 303Q244 336 284 336Q323 336 350.50 303.50Q378 271 378 226Q378 183 351 151Q324 119 284 119Z"  horiz-adv-x="560" vert-adv-y="1000"  />

      
      <glyph glyph-name="uni37" unicode="&#x37;" d="M3 540L3 697L553 697L553 561Q435 437 373 306Q304 159 304 0L103 0Q119 154 173.50 294.50Q228 435 317 538L3 540M23 677L23 560L358 560Q253 439 193 291Q141 162 125 20L285 20Q285 169 354 315Q416 447 533 569L533 677L23 677Z"  horiz-adv-x="560" vert-adv-y="1000"  />

      
      <glyph glyph-name="uni38" unicode="&#x38;" d="M279-10Q155-10 77.50 50.50Q0 111 0 212Q0 267 34 314.50Q68 362 109 371Q75 381 47.50 423.50Q20 466 20 511Q20 597 95 652Q170 707 279 707Q388 707 463 652Q538 597 538 511Q538 469 512 428Q486 387 452 371Q486 361 522 310.50Q558 260 558 212Q558 113 472 49Q392-10 279-10M279 432Q307 432 327.50 449.50Q348 467 348 494Q348 520 327.50 536.50Q307 553 279 553Q251 553 230.50 537Q210 521 210 494Q210 466 230 449Q250 432 279 432M279 146Q319 146 339.50 167.50Q360 189 360 221Q360 251 336.50 271.50Q313 292 279 292Q246 292 222 271Q198 250 198 220Q198 187 218 166.50Q238 146 279 146M279 10Q387 10 460 63Q538 120 538 212Q538 260 509 302Q476 350 418 370Q467 394 494 435Q518 471 518 511Q518 589 450.50 638Q383 687 279 687Q175 687 107.50 638.50Q40 590 40 511Q40 469 65 434Q94 395 150 372Q86 353 53 308.50Q20 264 20 212Q20 118 90 64Q160 10 279 10M279 412Q244 412 217 435.50Q190 459 190 494Q190 528 218 550.50Q246 573 279 573Q313 573 340.50 551Q368 529 368 494Q368 460 341 436Q314 412 279 412M279 126Q232 126 205 154Q178 182 178 220Q178 257 208.50 284.50Q239 312 279 312Q319 312 349.50 284.50Q380 257 380 221Q380 182 355 156Q326 126 279 126Z"  horiz-adv-x="560" vert-adv-y="1000"  />

      
      <glyph glyph-name="uni39" unicode="&#x39;" d="M257-10Q159-10 91 38Q15 92 15 186L197 186Q203 167 219.50 157.50Q236 148 258 148Q292 148 315.50 174.50Q339 201 345 238Q326 225 298.50 219Q271 213 239 213Q140 213 71 281Q2 349 2 449Q2 551 68 625Q142 707 264 707Q403 707 477 612Q545 524 545 373Q545 207 481 107Q406-10 257-10M264 373Q302 373 323.50 397.50Q345 422 345 458Q345 496 324 521.50Q303 547 264 547Q227 547 205.50 521.50Q184 496 184 458Q184 423 208 398Q232 373 264 373M257 10Q396 10 466 122Q525 217 525 373Q525 518 461 600Q393 687 264 687Q155 687 86 613Q22 544 22 449Q22 359 85 296Q148 233 239 233Q272 233 300 242Q328 251 372 280Q372 209 339 168.50Q306 128 258 128Q233 128 210 138.50Q187 149 182 166L35 166Q43 94 106.50 52Q170 10 257 10M264 353Q222 353 193 384Q164 415 164 458Q164 506 188.50 536.50Q213 567 264 567Q312 567 340 533Q365 503 365 458Q365 415 342 386Q316 353 264 353Z"  horiz-adv-x="560" vert-adv-y="1000"  />

      
      <glyph glyph-name="uni3a" unicode="&#x3a;" d="M230 347L30 347L30 530L230 530L230 347M230 0L30 0L30 183L230 183L230 0M50 367L210 367L210 510L50 510L50 367M50 20L210 20L210 163L50 163L50 20Z"  horiz-adv-x="260" vert-adv-y="1000"  />

      
      <glyph glyph-name="uni3b" unicode="&#x3b;" d="M230 347L30 347L30 530L230 530L230 347M30 0L30 183L230 183L230 14Q230-56 173-108Q116-160 30-160L30-61Q63-53 81.50-37.50Q100-22 105 0L30 0M50 367L210 367L210 510L50 510L50 367M50 163L50 20L131 20Q120-23 99.50-46.50Q79-70 50-77L50-138Q116-138 163-93Q210-48 210 14L210 163L50 163Z"  horiz-adv-x="260" vert-adv-y="1000"  />

      
      <glyph glyph-name="uni3c" unicode="&#x3c;" d="M640 13L20 233L20 361L640 581L640 439L249 296L640 155L640 13M40 247L620 41L620 141L190 296L620 453L620 553L40 347L40 247Z"  horiz-adv-x="660" vert-adv-y="1000"  />

      
      <glyph glyph-name="uni3d" unicode="&#x3d;" d="M612 390L20 390L20 519L612 519L612 390M612 210L20 210L20 339L612 339L612 210M40 410L592 410L592 499L40 499L40 410M40 230L592 230L592 319L40 319L40 230Z"  horiz-adv-x="622" vert-adv-y="1000"  />

      
      <glyph glyph-name="uni3e" unicode="&#x3e;" d="M640 233L20 13L20 155L411 296L20 439L20 581L640 361L640 233M40 41L620 247L620 347L40 553L40 453L470 296L40 141L40 41Z"  horiz-adv-x="660" vert-adv-y="1000"  />

      
      <glyph glyph-name="uni3f" unicode="&#x3f;" d="M364 223L188 223L188 280Q188 333 267 405Q346 477 346 520Q346 546 325.50 562.50Q305 579 275 579Q239 579 217 550Q195 521 195 471L5 471Q5 604 82 678Q155 748 273 748Q392 748 469 686Q546 624 546 520Q546 463 499 415Q455 375 412 336Q364 285 364 223M377 0L177 0L177 183L377 183L377 0M208 243L344 243Q344 321 435 392Q526 463 526 520Q526 616 456 672Q386 728 273 728Q162 728 93.50 665.50Q25 603 25 491L175 491Q175 533 203.50 566Q232 599 275 599Q312 599 339 576.50Q366 554 366 520Q366 466 287 394Q208 322 208 280L208 243M197 20L357 20L357 163L197 163L197 20Z"  horiz-adv-x="560" vert-adv-y="1000"  />

      
      <glyph glyph-name="uni40" unicode="&#x40;" d="M519 520L530 555L661 555L601 307Q599 299 599 295Q599 262 637 262Q678 262 706 306.50Q734 351 734 415Q734 524 646 601Q558 678 432 678Q300 678 207 583Q114 488 114 352Q114 226 211 138Q308 50 447 50Q513 50 583 77Q653 104 684 142L773 142Q726 76 625.50 28Q525-20 431-20Q263-20 139.50 93Q16 206 16 365Q16 524 141 636Q266 748 445 748Q601 748 710.50 656Q820 564 820 432Q820 312 748 227Q676 142 574 142Q549 142 526 155Q496 172 496 200Q472 171 430 155Q396 142 368 142Q294 142 241.50 194.50Q189 247 189 322Q189 423 257.50 495.50Q326 568 421 568Q454 568 479 558Q504 548 519 520M489 386Q493 404 475 426Q457 448 430 448Q385 448 357 403Q333 365 333 325Q333 298 348 280Q363 262 387 262Q430 262 460 304Q483 337 489 386M545 535L524 469Q498 517 471 535Q451 548 421 548Q333 548 271 483Q209 418 209 322Q209 254 254 208Q299 162 368 162Q407 162 446 188Q477 209 512 251Q512 201 535 178Q551 162 574 162Q670 162 735 239Q800 316 800 432Q800 556 698 642Q596 728 445 728Q273 728 154.50 622.50Q36 517 36 365Q36 213 152.50 106.50Q269 0 431 0Q516 0 610.50 40Q705 80 734 122L693 122Q663 85 590 57.50Q517 30 447 30Q303 30 198.50 125Q94 220 94 352Q94 493 194.50 595.50Q295 698 432 698Q564 698 659 615Q754 532 754 415Q754 346 719.50 294Q685 242 637 242Q614 242 597 259Q580 276 580 298Q580 302 582 312L636 535L545 535M509 384Q501 312 458 273Q424 242 387 242Q357 242 335 267Q313 292 313 325Q313 370 341 414Q375 468 430 468Q464 468 490 436Q513 407 509 384Z"  horiz-adv-x="834" vert-adv-y="1000"  />

      
      <glyph glyph-name="uni41" unicode="&#x41;" d="M-9 0L260 728L466 728L735 0L520 0L477 141L249 141L206 0L-9 0M428 289L365 491L296 289L428 289M274 708L20 20L191 20L234 161L492 161L535 20L706 20L452 708L274 708M455 269L268 269L364 555L455 269Z"  horiz-adv-x="724" vert-adv-y="1000"  />

      
      <glyph glyph-name="uni42" unicode="&#x42;" d="M45 0L45 728L424 728Q521 728 587 668Q653 608 653 521Q653 481 627.50 438Q602 395 564 375Q618 354 655 308.50Q692 263 692 217Q692 127 627.50 63.50Q563 0 468 0L45 0M245 560L245 451L393 451Q417 451 435 467Q453 483 453 506Q453 529 435.50 544.50Q418 560 393 560L245 560M245 303L245 168L412 168Q443 168 463.50 187.50Q484 207 484 236Q484 263 463 283Q442 303 412 303L245 303M65 708L65 20L468 20Q552 20 612 78Q672 136 672 218Q672 261 629.50 306.50Q587 352 526 372Q571 393 602 435.50Q633 478 633 520Q633 600 573 654Q513 708 424 708L65 708M225 431L225 580L393 580Q427 580 450 559Q473 538 473 507Q473 476 450.50 453.50Q428 431 393 431L225 431M225 148L225 323L412 323Q451 323 477.50 298.50Q504 274 504 237Q504 200 478 174Q452 148 412 148L225 148Z"  horiz-adv-x="715" vert-adv-y="1000"  />

      
      <glyph glyph-name="uni43" unicode="&#x43;" d="M378-20Q210-20 114.50 86Q19 192 19 364Q19 526 112 634Q210 748 370 748Q517 748 610 672Q710 591 710 450L511 450Q502 515 464.50 547.50Q427 580 371 580Q294 580 257 510Q227 454 227 366Q227 273 253 220Q288 148 369 148Q426 148 460.50 181.50Q495 215 511 279L710 279Q710 128 610 49Q522-20 378-20M378 0Q509 0 590 62Q678 130 690 259L527 259Q513 202 474 167Q431 128 369 128Q277 128 237 209Q207 269 207 366Q207 458 241 521Q284 600 371 600Q431 600 475.50 565Q520 530 528 470L690 470Q690 589 599.50 658.50Q509 728 370 728Q218 728 126 621Q39 519 39 364Q39 198 126 101Q217 0 378 0Z"  horiz-adv-x="733" vert-adv-y="1000"  />

      
      <glyph glyph-name="uni44" unicode="&#x44;" d="M45 0L45 728L381 728Q538 728 627 613Q705 512 705 364Q705 218 619 113Q526 0 381 0L45 0M245 560L245 168L362 168Q433 168 468 229Q497 280 497 364Q497 437 468 491Q431 560 362 560L245 560M65 708L65 20L381 20Q518 20 604 125Q685 224 685 364Q685 506 613 600Q530 708 381 708L65 708M225 148L225 580L362 580Q440 580 483 503Q517 442 517 364Q517 275 485 219Q444 148 362 148L225 148Z"  horiz-adv-x="733" vert-adv-y="1000"  />

      
      <glyph glyph-name="uni45" unicode="&#x45;" d="M45 0L45 728L639 728L639 560L245 560L245 457L609 457L609 289L245 289L245 168L659 168L659 0L45 0M65 708L65 20L639 20L639 148L225 148L225 309L589 309L589 437L225 437L225 580L619 580L619 708L65 708Z"  horiz-adv-x="688" vert-adv-y="1000"  />

      
      <glyph glyph-name="uni46" unicode="&#x46;" d="M50 0L50 728L592 728L592 560L250 560L250 447L566 447L566 279L250 279L250 0L50 0M70 708L70 20L230 20L230 299L546 299L546 427L230 427L230 580L572 580L572 708L70 708Z"  horiz-adv-x="602" vert-adv-y="1000"  />

      
      <glyph glyph-name="uni47" unicode="&#x47;" d="M743 410L743 0L596 0L585 48Q543 13 497.50-3.50Q452-20 391-20Q235-20 127.50 92.50Q20 205 20 360Q20 526 119 635Q223 749 391 749Q524 749 619 680Q724 604 743 470L545 470Q499 581 391 581Q306 581 263 509Q228 450 228 360Q228 276 269 215Q314 148 391 148Q444 148 489.50 174.50Q535 201 553 242L391 242L391 410L743 410M723 20L723 390L411 390L411 262L583 262Q561 198 503 161Q451 128 391 128Q307 128 255 203Q208 271 208 360Q208 454 247 519Q296 601 391 601Q446 601 492 570Q538 539 558 490L720 490Q704 601 608 667Q517 729 391 729Q230 729 133 623Q40 521 40 360Q40 211 140.50 105.50Q241 0 391 0Q453 0 495.50 17Q538 34 597 84L612 20L723 20Z"  horiz-adv-x="778" vert-adv-y="1000"  />

      
      <glyph glyph-name="uni48" unicode="&#x48;" d="M45 0L45 728L245 728L245 466L496 466L496 728L696 728L696 0L496 0L496 298L245 298L245 0L45 0M65 708L65 20L225 20L225 318L516 318L516 20L676 20L676 708L516 708L516 446L225 446L225 708L65 708Z"  horiz-adv-x="741" vert-adv-y="1000"  />

      
      <glyph glyph-name="uni49" unicode="&#x49;" d="M45 0L45 728L245 728L245 0L45 0M65 708L65 20L225 20L225 708L65 708Z"  horiz-adv-x="290" vert-adv-y="1000"  />

      
      <glyph glyph-name="uni4a" unicode="&#x4a;" d="M310 728L510 728L510 191Q510 95 431 35Q358-20 256-20Q154-20 77 39.50Q0 99 0 182L0 298L200 298L200 201Q200 173 219 159Q234 148 256 148Q277 148 293.50 162.50Q310 177 310 201L310 728M490 708L330 708L330 201Q330 171 306.50 149.50Q283 128 256 128Q229 128 208 143Q180 163 180 201L180 278L20 278L20 182Q20 107 89.50 53.50Q159 0 256 0Q352 0 418 49Q490 103 490 191L490 708Z"  horiz-adv-x="549" vert-adv-y="1000"  />

      
      <glyph glyph-name="uni4b" unicode="&#x4b;" d="M45 0L45 728L245 728L245 475L479 728L732 728L419 420L746 0L504 0L290 293L245 249L245 0L45 0M65 708L65 20L225 20L225 257L293 323L514 20L705 20L392 422L683 708L488 708L228 425L225 708L65 708Z"  horiz-adv-x="731" vert-adv-y="1000"  />

      
      <glyph glyph-name="uni4c" unicode="&#x4c;" d="M45 0L45 728L245 728L245 168L565 168L565 0L45 0M65 708L65 20L545 20L545 148L225 148L225 708L65 708Z"  horiz-adv-x="575" vert-adv-y="1000"  />

      
      <glyph glyph-name="uni4d" unicode="&#x4d;" d="M45 0L45 728L293 728L434 245L577 728L825 728L825 0L625 0L625 402L521 0L349 0L247 402L245 0L45 0M65 708L65 20L225 20L225 566L365 20L505 20L643 566L645 20L805 20L805 708L592 708L436 174L278 708L65 708Z"  horiz-adv-x="860" vert-adv-y="1000"  />

      
      <glyph glyph-name="uni4e" unicode="&#x4e;" d="M45 0L45 728L246 728L472 333L474 728L674 728L674 0L474 0L247 402L245 0L45 0M65 708L65 20L225 20L225 479L486 20L654 20L654 708L494 708L494 258L234 708L65 708Z"  horiz-adv-x="719" vert-adv-y="1000"  />

      
      <glyph glyph-name="uni4f" unicode="&#x4f;" d="M392-20Q218-20 116 93Q20 199 20 364Q20 522 117 631Q221 748 391 748Q562 748 666 635Q764 528 764 364Q764 199 668 93Q566-20 392-20M393 148Q478 148 520 212Q556 267 556 364Q556 460 522 514Q481 580 393 580Q307 580 265 516Q228 460 228 364Q228 268 265 212Q307 148 393 148M392 0Q558 0 654 106Q744 205 744 364Q744 522 652 622Q555 728 391 728Q229 728 131 619Q40 517 40 364Q40 206 130 106Q226 0 392 0M393 128Q298 128 250 200Q208 262 208 364Q208 465 249 527Q298 600 393 600Q489 600 536 526Q576 463 576 364Q576 263 535 201Q487 128 393 128Z"  horiz-adv-x="784" vert-adv-y="1000"  />

      
      <glyph glyph-name="uni50" unicode="&#x50;" d="M45 0L45 728L408 728Q512 728 582.50 654.50Q653 581 653 479Q653 377 583 306Q513 235 402 235L245 235L245 0L45 0M245 560L245 403L366 403Q397 403 422 426Q447 449 447 479Q447 513 425.50 536.50Q404 560 369 560L245 560M65 708L65 20L225 20L225 255L402 255Q505 255 569 319Q633 383 633 479Q633 575 569.50 641.50Q506 708 408 708L65 708M225 383L225 580L369 580Q410 580 438.50 549.50Q467 519 467 479Q467 443 435 413Q403 383 366 383L225 383Z"  horiz-adv-x="663" vert-adv-y="1000"  />

      
      <glyph glyph-name="uni51" unicode="&#x51;" d="M697 127L770 54L660-56L581 23Q542 2 495.50-9Q449-20 395-20Q221-20 119 93Q23 199 23 364Q23 522 120 631Q224 748 394 748Q565 748 669 635Q767 528 767 364Q767 227 697 127M380 224L490 334L549 275Q559 314 559 364Q559 460 525 514Q484 580 396 580Q310 580 268 516Q231 460 231 364Q231 268 268 212Q310 148 396 148Q415 148 424 149Q433 150 449 155L380 224M742 54L671 125Q710 181 728.50 239.50Q747 298 747 364Q747 522 655 622Q558 728 394 728Q232 728 134 619Q43 517 43 364Q43 206 133 106Q229 0 395 0Q448 0 492.50 11Q537 22 585 48L660-28L742 54M490 306L408 224L487 146Q452 135 433 131.50Q414 128 396 128Q301 128 253 200Q211 262 211 364Q211 465 252 527Q301 600 396 600Q492 600 539 526Q579 463 579 364Q579 335 575.50 310Q572 285 560 236L490 306Z"  horiz-adv-x="784" vert-adv-y="1000"  />

      
      <glyph glyph-name="uni52" unicode="&#x52;" d="M45 0L45 728L425 728Q531 728 606 664Q681 600 681 508Q681 383 586 341L586 337Q617 326 636 296.50Q655 267 655 238L655 102Q655 66 661 46.50Q667 27 686 0L482 0Q466 28 460.50 50.50Q455 73 455 103L455 188Q455 214 437 233Q419 252 392 252L245 252L245 0L45 0M245 560L245 406L397 406Q429 406 452 428Q475 450 475 483Q475 515 452.50 537.50Q430 560 397 560L245 560M65 708L65 20L225 20L225 272L392 272Q424 272 449.50 246.50Q475 221 475 188L475 103Q475 52 494 20L647 20Q645 23 640 49Q635 75 635 102L635 236Q635 271 613 297Q588 326 540 337L540 341Q595 351 628 395Q661 439 661 508Q661 593 593.50 650.50Q526 708 425 708L65 708M225 386L225 580L397 580Q435 580 465 551Q495 522 495 483Q495 445 465.50 415.50Q436 386 397 386L225 386Z"  horiz-adv-x="711" vert-adv-y="1000"  />

      
      <glyph glyph-name="uni53" unicode="&#x53;" d="M24 235L224 235Q239 138 343 138Q393 138 423 152Q460 169 460 203Q460 247 350 274Q191 313 146 337Q36 396 36 520Q36 622 119.50 685Q203 748 328 748Q458 748 550.50 673.50Q643 599 643 493L443 493Q443 534 411 562Q379 590 335 590Q291 590 265.50 571.50Q240 553 240 520Q240 468 351 439Q533 391 557 380Q668 327 668 216Q668 91 564 30Q479-20 341-20Q206-20 115 51.50Q24 123 24 235M207 215L44 215Q44 125 129 62.50Q214 0 341 0Q475 0 553 45Q648 100 648 216Q648 315 537 363Q434 393 331 423Q220 457 220 520Q220 560 253 585Q286 610 335 610Q384 610 423.50 579Q463 548 463 513L623 513Q623 598 537 663Q451 728 328 728Q208 728 132 671.50Q56 615 56 520Q56 409 166 354Q192 341 370 290Q480 258 480 203Q480 160 435 137Q397 118 343 118Q287 118 250 145.50Q213 173 207 215Z"  horiz-adv-x="694" vert-adv-y="1000"  />

      
      <glyph glyph-name="uni54" unicode="&#x54;" d="M200 0L200 560L0 560L0 728L600 728L600 560L400 560L400 0L200 0M220 580L220 20L380 20L380 580L580 580L580 708L20 708L20 580L220 580Z"  horiz-adv-x="600" vert-adv-y="1000"  />

      
      <glyph glyph-name="uni55" unicode="&#x55;" d="M36 728L236 728L236 234Q236 196 267.50 172Q299 148 344 148Q387 148 422 173Q457 198 457 234L457 728L657 728L657 234Q657 126 567 53Q477-20 345-20Q217-20 126.50 53Q36 126 36 234L36 728M216 708L56 708L56 234Q56 133 139.50 66.50Q223 0 345 0Q471 0 554 67Q637 134 637 234L637 708L477 708L477 234Q477 190 435 159Q393 128 344 128Q293 128 254.50 158Q216 188 216 234L216 708Z"  horiz-adv-x="691" vert-adv-y="1000"  />

      
      <glyph glyph-name="uni56" unicode="&#x56;" d="M470 728L699 728L423 0L248 0L-10 728L209 728L335 286L470 728M485 708L336 214L194 708L18 708L262 20L409 20L670 708L485 708Z"  horiz-adv-x="689" vert-adv-y="1000"  />

      
      <glyph glyph-name="uni57" unicode="&#x57;" d="M378 728L574 728L659 342L753 728L962 728L741 0L565 0L475 411L383 0L206 0L-10 728L198 728L289 342L378 728M394 708L292 251L182 708L17 708L221 20L367 20L472 504L581 20L726 20L935 708L769 708L661 251L558 708L394 708Z"  horiz-adv-x="952" vert-adv-y="1000"  />

      
      <glyph glyph-name="uni58" unicode="&#x58;" d="M356 508L485 728L711 728L476 368L713 0L485 0L356 211L225 0L-3 0L241 368L4 728L230 728L356 508M496 708L356 468L218 708L41 708L265 368L34 20L214 20L356 249L496 20L676 20L452 368L674 708L496 708Z"  horiz-adv-x="706" vert-adv-y="1000"  />

      
      <glyph glyph-name="uni59" unicode="&#x59;" d="M229 0L229 270L-20 728L212 728L328 465L446 728L678 728L429 270L429 0L229 0M249 275L249 20L409 20L409 275L644 708L459 708L330 417L199 708L14 708L249 275Z"  horiz-adv-x="658" vert-adv-y="1000"  />

      
      <glyph glyph-name="uni5a" unicode="&#x5a;" d="M25 0L25 152L397 560L34 560L34 728L633 728L633 575L279 168L633 168L633 0L25 0M45 144L45 20L613 20L613 148L235 148L613 582L613 708L54 708L54 580L442 580L45 144Z"  horiz-adv-x="658" vert-adv-y="1000"  />

      
      <glyph glyph-name="uni5b" unicode="&#x5b;" d="M40-120L40 827L340 827L340 685L229 685L229 22L340 22L340-120L40-120M60 807L60-100L320-100L320 2L209 2L209 705L320 705L320 807L60 807Z"  horiz-adv-x="350" vert-adv-y="1000"  />

      
      <glyph glyph-name="uni5c" unicode="&#x5c;" d="M233-40L-30 727L98 727L360-40L233-40M-2 707L247-20L332-20L84 707L-2 707Z"  horiz-adv-x="330" vert-adv-y="1000"  />

      
      <glyph glyph-name="uni5d" unicode="&#x5d;" d="M120 22L120 686L10 686L10 828L309 828L309-120L10-120L10 22L120 22M140 706L140 2L30 2L30-100L289-100L289 808L30 808L30 706L140 706Z"  horiz-adv-x="350" vert-adv-y="1000"  />

      
      <glyph glyph-name="uni5e" unicode="&#x5e;" d="M167 729L307 729L488 459L319 459L238 590L155 459L-14 459L167 729M296 709L178 709L23 479L144 479L238 628L330 479L451 479L296 709Z"  horiz-adv-x="474" vert-adv-y="1000"  />

      
      <glyph glyph-name="uni5f" unicode="&#x5f;" d="M0-142L0-72L548-72L548-142L0-142M20-92L20-122L528-122L528-92L20-92Z"  horiz-adv-x="548" vert-adv-y="1000"  />

      
      <glyph glyph-name="uni60" unicode="&#x60;" d="M230 386L30 386L30 555Q30 625 87 677Q144 729 230 729L230 630Q197 622 178.50 606.50Q160 591 155 569L230 569L230 386M50 406L210 406L210 549L129 549Q140 592 160.50 615.50Q181 639 210 646L210 707Q144 707 97 662Q50 617 50 555L50 406Z"  horiz-adv-x="260" vert-adv-y="1000"  />

      
      <glyph glyph-name="uni61" unicode="&#x61;" d="M223 344L33 344Q33 424 108 482Q183 540 285 540Q391 540 462.50 491.50Q534 443 534 371L534 116Q534 80 541.50 54Q549 28 569 0L365 0Q356 9 351 18.50Q346 28 344 37Q312 14 275 2Q238-10 192-10Q109-10 60 36Q11 82 11 154Q11 212 53.50 250.50Q96 289 181.50 301.50Q267 314 291 321Q344 336 344 363Q344 377 326.50 388.50Q309 400 283 400Q258 400 240.50 383.50Q223 367 223 344M344 191L344 252Q331 244 280 228Q203 203 203 173Q203 150 225 142Q236 138 255 138Q284 138 308.50 151.50Q333 165 344 191M53 364L203 364Q203 380 228.50 400Q254 420 283 420Q314 420 339 402Q364 384 364 363Q364 325 303 305Q270 294 187 282Q104 270 67.50 237.50Q31 205 31 154Q31 89 73.50 49.50Q116 10 192 10Q239 10 273.50 22.50Q308 35 357 71Q360 55 364 40.50Q368 26 374 20L529 20Q524 28 519 54.50Q514 81 514 116L514 371Q514 436 450 478Q386 520 285 520Q190 520 121.50 472.50Q53 425 53 364M364 287L364 187Q350 153 319 135.50Q288 118 255 118Q226 118 207 130Q183 145 183 173Q183 212 244 237Q305 262 364 287Z"  horiz-adv-x="580" vert-adv-y="1000"  />

      
      <glyph glyph-name="uni62" unicode="&#x62;" d="M35 0L35 727L225 727L225 474Q247 498 285 519Q323 540 358 540Q464 540 532.50 464.50Q601 389 601 280Q601 157 533.50 73.50Q466-10 357-10Q317-10 283 7Q249 24 225 52L225 0L35 0M225 282L225 247Q225 203 250.50 174.50Q276 146 313 146Q352 146 379.50 182.50Q407 219 407 270Q407 315 379.50 347.50Q352 380 314 380Q277 380 251 352Q225 324 225 282M55 707L55 20L205 20L205 110Q230 65 270 37.50Q310 10 357 10Q459 10 520 86Q581 162 581 280Q581 384 519 452Q457 520 358 520Q318 520 277 493.50Q236 467 207 421L205 707L55 707M205 247L205 282Q205 329 237.50 364.50Q270 400 314 400Q359 400 393 360Q427 320 427 270Q427 213 393.50 169.50Q360 126 313 126Q270 126 237.50 161.50Q205 197 205 247Z"  horiz-adv-x="616" vert-adv-y="1000"  />

      
      <glyph glyph-name="uni63" unicode="&#x63;" d="M294-10Q171-10 93 69Q15 148 15 273Q15 384 96 462Q177 540 293 540Q402 540 477 478Q557 412 557 310L368 310Q368 349 347 366.50Q326 384 294 384Q251 384 230 353.50Q209 323 209 274Q209 218 230 182Q251 146 294 146Q323 146 345.50 166.50Q368 187 368 226L557 226Q557 116 476 50Q402-10 294-10M294 10Q393 10 463 62Q537 117 537 206L388 206Q388 172 358.50 149Q329 126 294 126Q244 126 216.50 170Q189 214 189 274Q189 329 215.50 366.50Q242 404 294 404Q329 404 358.50 384.50Q388 365 388 330L537 330Q537 412 466.50 466Q396 520 293 520Q184 520 109.50 448.50Q35 377 35 273Q35 154 106 82Q177 10 294 10Z"  horiz-adv-x="572" vert-adv-y="1000"  />

      
      <glyph glyph-name="uni64" unicode="&#x64;" d="M391 727L581 727L581 0L391 0L391 54Q376 29 338 9.50Q300-10 259-10Q150-10 82.50 73.50Q15 157 15 280Q15 389 83.50 464.50Q152 540 258 540Q292 540 329.50 521Q367 502 391 477L391 727M391 247L391 282Q391 323 365.50 351.50Q340 380 303 380Q264 380 236.50 347.50Q209 315 209 270Q209 219 236.50 182.50Q264 146 303 146Q340 146 365.50 174.50Q391 203 391 247M561 707L411 707L411 427Q389 466 344.50 493Q300 520 258 520Q160 520 97.50 451.50Q35 383 35 280Q35 163 96 86.50Q157 10 259 10Q304 10 346 39Q388 68 409 112L411 20L561 20L561 707M411 282L411 247Q411 197 378.50 161.50Q346 126 303 126Q257 126 223 170Q189 214 189 270Q189 321 223 360.50Q257 400 303 400Q347 400 379 365Q411 330 411 282Z"  horiz-adv-x="616" vert-adv-y="1000"  />

      
      <glyph glyph-name="uni65" unicode="&#x65;" d="M577 220L207 220Q207 181 232.50 153.50Q258 126 295 126Q324 126 348 142Q372 158 380 182L570 182Q559 102 479 46Q399-10 295-10Q179-10 97 73Q15 156 15 273Q15 384 96.50 462Q178 540 295 540Q412 540 494.50 464.50Q577 389 577 282L577 220M207 336L380 336Q376 362 349.50 383Q323 404 291 404Q260 404 235 384Q210 364 207 336M187 240L557 240L557 282Q557 382 482 451Q407 520 295 520Q184 520 109.50 448.50Q35 377 35 273Q35 162 110 86Q185 10 295 10Q391 10 465 57Q539 104 547 162L395 162Q389 143 357.50 124.50Q326 106 295 106Q250 106 218.50 143.50Q187 181 187 240M403 316L185 316Q190 364 221 394Q252 424 291 424Q334 424 366 398Q403 368 403 316Z"  horiz-adv-x="590" vert-adv-y="1000"  />

      
      <glyph glyph-name="uni66" unicode="&#x66;" d="M69 0L69 390L0 390L0 530L69 530L69 559Q69 629 116.50 678.50Q164 728 232 728L349 728L349 582L296 582Q280 582 269.50 571.50Q259 561 259 546L259 530L349 530L349 390L259 390L259 0L69 0M89 410L89 20L239 20L239 410L329 410L329 510L239 510L239 546Q239 567 255.50 584.50Q272 602 296 602L329 602L329 708L232 708Q170 708 129.50 665.50Q89 623 89 559L89 510L20 510L20 410L89 410Z"  horiz-adv-x="359" vert-adv-y="1000"  />

      
      <glyph glyph-name="uni67" unicode="&#x67;" d="M387 530L577 530L577 0Q577-102 495-165Q419-223 308-223Q207-223 144-189Q57-142 35-34L229-34Q235-58 257-69.50Q279-81 309-81Q340-81 363.50-58.50Q387-36 387 0L387 44Q361 14 322 2Q283-10 237-10Q135-10 72 77Q15 156 15 260Q15 372 75 451Q143 540 258 540Q296 540 331 525.50Q366 511 387 482L387 530M387 217L387 296Q387 327 363.50 353.50Q340 380 309 380Q263 380 236 346Q209 312 209 263Q209 212 233 177Q261 136 308 136Q341 136 364 160Q387 184 387 217M557 510L407 510L407 425Q379 475 333 500Q296 520 258 520Q152 520 90 439Q35 367 35 260Q35 160 86 89Q142 10 237 10Q298 10 335.50 30.50Q373 51 405 90L407 0Q407-42 377.50-71.50Q348-101 309-101Q274-101 246-88Q218-75 213-54L59-54Q76-137 154-174Q215-203 308-203Q413-203 482-151Q557-95 557 0L557 510M407 296L407 217Q407 177 377.50 146.50Q348 116 308 116Q253 116 219 164Q189 207 189 263Q189 318 221.50 359Q254 400 309 400Q348 400 377.50 367Q407 334 407 296Z"  horiz-adv-x="612" vert-adv-y="1000"  />

      
      <glyph glyph-name="uni68" unicode="&#x68;" d="M35 0L35 728L225 728L225 482Q246 506 290 523Q334 540 367 540Q446 540 501.50 494.50Q557 449 557 384L557 0L367 0L367 335Q367 356 351 370Q335 384 312 384Q287 384 263.50 369.50Q240 355 225 332L225 0L35 0M55 708L55 20L205 20L205 336Q223 367 251 385.50Q279 404 312 404Q341 404 364 383Q387 362 387 335L387 20L537 20L537 384Q537 442 489 481Q441 520 367 520Q331 520 292 502Q239 478 207 430L205 708L55 708Z"  horiz-adv-x="587" vert-adv-y="1000"  />

      
      <glyph glyph-name="uni69" unicode="&#x69;" d="M225 576L35 576L35 748L225 748L225 576M35 0L35 530L225 530L225 0L35 0M55 596L205 596L205 728L55 728L55 596M55 510L55 20L205 20L205 510L55 510Z"  horiz-adv-x="260" vert-adv-y="1000"  />

      
      <glyph glyph-name="uni6a" unicode="&#x6a;" d="M225 576L35 576L35 748L225 748L225 576M35 530L225 530L225-20Q225-104 169.50-163.50Q114-223 35-223Q3-223-21-220.50Q-45-218-64-207L-64-51Q-51-57-34-59Q-17-61-4-61Q13-61 24-46.50Q35-32 35-10L35 530M55 596L205 596L205 728L55 728L55 596M205 510L55 510L55-10Q55-37 38-59Q21-81-4-81L-44-81L-44-195Q-37-199-11.50-201Q14-203 35-203Q107-203 156-151Q205-99 205-20L205 510Z"  horiz-adv-x="260" vert-adv-y="1000"  />

      
      <glyph glyph-name="uni6b" unicode="&#x6b;" d="M35 0L35 728L225 728L225 401L350 540L588 540L391 330L595 0L368 0L257 195L225 162L225 0L35 0M55 708L55 20L205 20L205 170L261 228L380 20L559 20L366 333L542 520L359 520L205 349L205 708L55 708Z"  horiz-adv-x="580" vert-adv-y="1000"  />

      
      <glyph glyph-name="uni6c" unicode="&#x6c;" d="M35 0L35 728L225 728L225 0L35 0M55 708L55 20L205 20L205 708L55 708Z"  horiz-adv-x="260" vert-adv-y="1000"  />

      
      <glyph glyph-name="uni6d" unicode="&#x6d;" d="M35 0L35 530L225 530L225 482Q257 512 284.50 526Q312 540 335 540Q383 540 420.50 526Q458 512 485 481Q516 509 555 524.50Q594 540 635 540Q714 540 769.50 494.50Q825 449 825 384L825 0L635 0L635 338Q635 357 621.50 370.50Q608 384 589 384Q570 384 552 370Q539 360 525 338L525 0L335 0L335 338Q335 357 321.50 370.50Q308 384 289 384Q270 384 252 370Q239 360 225 338L225 0L35 0M55 510L55 20L205 20L205 344Q221 368 240 384Q265 404 289 404Q314 404 334.50 383.50Q355 363 355 338L355 20L505 20L505 344Q521 368 540 384Q565 404 589 404Q614 404 634.50 383.50Q655 363 655 338L655 20L805 20L805 384Q805 442 757 481Q709 520 635 520Q595 520 559.50 504.50Q524 489 483 453Q450 490 416 505Q382 520 335 520Q289 520 207 441L205 510L55 510Z"  horiz-adv-x="855" vert-adv-y="1000"  />

      
      <glyph glyph-name="uni6e" unicode="&#x6e;" d="M35 0L35 530L225 530L225 482Q246 506 290 523Q334 540 367 540Q446 540 501.50 494.50Q557 449 557 384L557 0L367 0L367 335Q367 356 351 370Q335 384 312 384Q287 384 263.50 369.50Q240 355 225 332L225 0L35 0M55 510L55 20L205 20L205 338Q224 366 253 385Q282 404 312 404Q341 404 364 383Q387 362 387 335L387 20L537 20L537 384Q537 442 489 481Q441 520 367 520Q324 520 291 506Q239 484 207 431L205 510L55 510Z"  horiz-adv-x="587" vert-adv-y="1000"  />

      
      <glyph glyph-name="uni6f" unicode="&#x6f;" d="M306-10Q176-10 93 66Q10 142 10 267Q10 390 93 465Q176 540 306 540Q440 540 523 466Q606 392 606 267Q606 144 521 67Q436-10 306-10M306 146Q359 146 385.50 179.50Q412 213 412 267Q412 320 385 352Q358 384 306 384Q257 384 230.50 351.50Q204 319 204 267Q204 213 230 179.50Q256 146 306 146M306 10Q429 10 507.50 80.50Q586 151 586 267Q586 385 510 452.50Q434 520 306 520Q181 520 105.50 452Q30 384 30 267Q30 148 105.50 79Q181 10 306 10M306 126Q249 126 216.50 166.50Q184 207 184 267Q184 325 216.50 364.50Q249 404 306 404Q366 404 399 365.50Q432 327 432 267Q432 207 402 169Q368 126 306 126Z"  horiz-adv-x="616" vert-adv-y="1000"  />

      
      <glyph glyph-name="uni70" unicode="&#x70;" d="M35-212L35 530L225 530L225 477Q242 501 281.50 520.50Q321 540 359 540Q470 540 536 452Q595 373 595 264Q595 154 536 77Q469-10 358-10Q319-10 280.50 8.50Q242 27 225 49L225-212L35-212M225 282L225 248Q225 206 250 176Q275 146 312 146Q353 146 377 180.50Q401 215 401 267Q401 315 376.50 347.50Q352 380 312 380Q276 380 250.50 351.50Q225 323 225 282M55 510L55-192L205-192L205 97Q244 49 280.50 29.50Q317 10 358 10Q461 10 521 88Q575 159 575 264Q575 368 522 440Q463 520 359 520Q318 520 283 500Q238 474 207 420L205 510L55 510M205 248L205 282Q205 328 237 364Q269 400 312 400Q359 400 390 360Q421 320 421 267Q421 211 391 168.50Q361 126 312 126Q268 126 236.50 162.50Q205 199 205 248Z"  horiz-adv-x="612" vert-adv-y="1000"  />

      
      <glyph glyph-name="uni71" unicode="&#x71;" d="M388 530L578 530L578-212L388-212L388 40Q371 19 336 4.50Q301-10 255-10Q148-10 77 77Q10 159 10 266Q10 374 71 452Q140 540 252 540Q295 540 331 522Q367 504 388 477L388 530M388 231L388 299Q381 333 355 356.50Q329 380 299 380Q250 380 225 344Q204 314 204 266Q204 210 224 181Q248 146 302 146Q334 146 359 171Q384 196 388 231M558 510L408 510L408 429Q366 480 325 502Q291 520 252 520Q148 520 86 441Q30 369 30 266Q30 164 90 90Q155 10 255 10Q300 10 331 24Q369 41 406 86L408-192L558-192L558 510M408 301L408 230Q403 189 371.50 157.50Q340 126 302 126Q239 126 209 169Q184 205 184 266Q184 318 210 355Q242 400 299 400Q335 400 367.50 371.50Q400 343 408 301Z"  horiz-adv-x="613" vert-adv-y="1000"  />

      
      <glyph glyph-name="uni72" unicode="&#x72;" d="M35 0L35 530L225 530L225 482Q237 503 265 521.50Q293 540 319 540Q351 540 385 530L385 354Q375 358 354.50 362Q334 366 318 366Q283 366 254 340.50Q225 315 225 273L225 0L35 0M55 510L55 20L205 20L205 273Q205 323 239.50 354.50Q274 386 318 386Q332 386 344.50 385Q357 384 365 381L365 515Q350 519 339 519.50Q328 520 319 520Q292 520 264 497Q229 468 207 413L205 510L55 510Z"  horiz-adv-x="384" vert-adv-y="1000"  />

      
      <glyph glyph-name="uni73" unicode="&#x73;" d="M281-10Q161-10 88.50 43.50Q16 97 16 182L205 182Q205 160 227.50 145Q250 130 283 130Q311 130 328.50 139Q346 148 346 166Q346 186 266 201Q159 221 116 243Q34 285 34 371Q34 441 101.50 490.50Q169 540 267 540Q372 540 444.50 488.50Q517 437 517 359L340 359Q335 383 316 392.50Q297 402 268 402Q247 402 233 391Q219 380 219 365Q219 336 301 324Q419 306 453 292Q536 257 536 172Q536 82 455 33Q384-10 281-10M281 10Q380 10 443 47Q516 90 516 172Q516 244 434 274Q358 290 278.50 307Q199 324 199 365Q199 386 220 404Q241 422 268 422Q300 422 326 411Q352 400 356 379L496 379Q496 435 430 477.50Q364 520 267 520Q174 520 114 477Q54 434 54 371Q54 297 134 260Q160 248 284 218Q366 198 366 166Q366 140 341 125Q316 110 283 110Q248 110 217 128Q186 146 186 162L36 162Q36 97 102 53.50Q168 10 281 10Z"  horiz-adv-x="550" vert-adv-y="1000"  />

      
      <glyph glyph-name="uni74" unicode="&#x74;" d="M69 390L0 390L0 530L69 530L69 680L259 680L259 530L340 530L340 390L259 390L259 183Q259 173 266.50 164.50Q274 156 284 156Q301 156 312 158.50Q323 161 340 173L340 12Q311 1 276-4.50Q241-10 211-10Q150-10 109.50 26.50Q69 63 69 119L69 390M20 410L89 410L89 119Q89 70 123 40Q157 10 211 10Q245 10 270.50 13.50Q296 17 320 26L320 135Q315 135 310 136L284 136Q268 136 253.50 151.50Q239 167 239 183L239 410L320 410L320 510L239 510L239 660L89 660L89 510L20 510L20 410Z"  horiz-adv-x="344" vert-adv-y="1000"  />

      
      <glyph glyph-name="uni75" unicode="&#x75;" d="M30 530L220 530L220 209Q220 184 238 165Q256 146 282 146Q314 146 337 165Q360 184 360 210L360 530L550 530L550 0L360 0L360 44Q345 22 306 6Q267-10 229-10Q146-10 88 46Q30 102 30 182L30 530M200 510L50 510L50 182Q50 108 101 59Q152 10 229 10Q275 10 307 26Q350 48 378 100L380 20L530 20L530 510L380 510L380 210Q380 177 350.50 151.50Q321 126 282 126Q250 126 225 151Q200 176 200 209L200 510Z"  horiz-adv-x="590" vert-adv-y="1000"  />

      
      <glyph glyph-name="uni76" unicode="&#x76;" d="M370 530L574 530L373 0L191 0L-10 530L194 530L281 249L370 530M385 510L283 181L179 510L19 510L205 20L359 20L545 510L385 510Z"  horiz-adv-x="565" vert-adv-y="1000"  />

      
      <glyph glyph-name="uni77" unicode="&#x77;" d="M303 530L482 530L534 279L592 530L794 530L632 0L440 0L394 234L345 0L154 0L-10 530L193 530L248 279L303 530M319 510L250 187L177 510L17 510L169 20L329 20L392 331L456 20L617 20L767 510L608 510L535 185L466 510L319 510Z"  horiz-adv-x="787" vert-adv-y="1000"  />

      
      <glyph glyph-name="uni78" unicode="&#x78;" d="M303 406L380 530L605 530L420 272L610 0L375 0L303 122L231 0L-5 0L189 273L1 530L226 530L303 406M391 510L303 368L215 510L40 510L214 273L34 20L220 20L303 161L386 20L572 20L395 272L566 510L391 510Z"  horiz-adv-x="604" vert-adv-y="1000"  />

      
      <glyph glyph-name="uni79" unicode="&#x79;" d="M362 530L580 530L353-105Q333-158 282.50-190.50Q232-223 175-223Q146-223 127.50-219Q109-215 79-205L79-47Q94-56 110.50-60.50Q127-65 141-65Q160-65 171-54Q182-43 189-20L199 10L-10 530L209 530L291 245L362 530M378 510L295 168L194 510L20 510L220 11L208-26Q200-52 183.50-68.50Q167-85 141-85Q130-85 116-84.50Q102-84 99-82L99-191Q138-203 175-203Q227-203 271.50-174.50Q316-146 334-98L552 510L378 510Z"  horiz-adv-x="570" vert-adv-y="1000"  />

      
      <glyph glyph-name="uni7a" unicode="&#x7a;" d="M15 0L15 140L275 382L35 384L35 530L525 530L525 397L258 148L535 146L535 0L15 0M35 131L35 20L515 20L515 126L207 126L505 406L505 510L55 510L55 404L326 404L35 131Z"  horiz-adv-x="555" vert-adv-y="1000"  />

      
      <glyph glyph-name="uni7b" unicode="&#x7b;" d="M10 287L10 429L49 429Q78 429 99 448Q120 467 120 495L120 676Q120 738 173.50 783Q227 828 289 828L373 828L373 686L323 686Q308 686 297.50 674.50Q287 663 287 649L287 468Q287 432 269 400Q251 368 224 356Q251 343 269 313Q287 283 287 250L287 58Q287 22 321 22L373 22L373-120L282-120Q225-120 175-80Q120-36 120 24L120 223Q120 251 99 269Q78 287 49 287L10 287M30 409L30 307L49 307Q83 307 111.50 282.50Q140 258 140 223L140 24Q140-27 187-65Q231-100 282-100L353-100L353 2L321 2Q299 2 283 18Q267 34 267 58L267 250Q267 279 248 304Q225 333 176 357Q224 378 247 408Q267 434 267 468L267 649Q267 670 284 688Q301 706 323 706L353 706L353 808L289 808Q233 808 186.50 769.50Q140 731 140 676L140 495Q140 461 113 435Q86 409 49 409L30 409Z"  horiz-adv-x="380" vert-adv-y="1000"  />

      
      <glyph glyph-name="uni7c" unicode="&#x7c;" d="M45-120L45 827L191 827L191-120L45-120M65 807L65-100L171-100L171 807L65 807Z"  horiz-adv-x="236" vert-adv-y="1000"  />

      
      <glyph glyph-name="uni7d" unicode="&#x7d;" d="M354 429L354 287L315 287Q286 287 265 269Q244 251 244 223L244 24Q244-36 191.50-78Q139-120 82-120L-9-120L-9 22L43 22Q77 22 77 58L77 250Q77 284 96 313Q112 338 140 356Q113 373 95 401.50Q77 430 77 468L77 649Q77 664 67 675Q57 686 41 686L-9 686L-9 828L75 828Q138 828 191 783.50Q244 739 244 676L244 495Q244 467 264 448Q284 429 315 429L354 429M334 307L334 409L315 409Q279 409 251.50 434.50Q224 460 224 495L224 676Q224 731 177.50 769.50Q131 808 75 808L11 808L11 706L41 706Q63 706 80 688Q97 670 97 649L97 468Q97 434 115.50 409Q134 384 177 356Q134 328 115.50 304Q97 280 97 250L97 58Q97 35 81.50 18.50Q66 2 43 2L11 2L11-100L82-100Q134-100 177-66Q224-29 224 24L224 223Q224 258 252 282.50Q280 307 315 307L334 307Z"  horiz-adv-x="380" vert-adv-y="1000"  />

      
      <glyph glyph-name="uni7e" unicode="&#x7e;" d="M494 530L643 530Q643 435 594 372Q537 299 433 299Q358 299 285 372Q250 407 212 407Q178 407 160.50 376Q143 345 143 299L-6 299Q-6 399 41 460Q95 530 200 530Q276 530 336 476Q396 422 425 422Q459 422 476.50 452Q494 482 494 530M623 510L514 510Q514 471 493 440Q467 402 425 402Q383 402 323 456Q263 510 200 510Q105 510 56 451Q14 400 14 319L123 319Q123 355 145 388Q171 427 212 427Q267 427 320 373Q373 319 433 319Q526 319 578 381Q623 435 623 510Z"  horiz-adv-x="647" vert-adv-y="1000"  />

      
      <glyph glyph-name="uni201A" unicode="&#x201A;" d="M30 0L30 183L230 183L230 14Q230-56 173-108Q116-160 30-160L30-61Q63-53 81.50-37.50Q100-22 105 0L30 0M50 163L50 20L131 20Q125-22 104-46Q83-70 50-77L50-138Q115-132 162.50-88.50Q210-45 210 14L210 163L50 163Z"  horiz-adv-x="260" vert-adv-y="1000"  />

      
      <glyph glyph-name="uni0192" unicode="&#x0192;" d="M121 390L52 390L77 530L146 530L151 559Q163 629 219.50 678.50Q276 728 344 728L461 728L435 582L382 582Q365 582 353 571.50Q341 561 339 546L336 530L426 530L401 390L311 390L239-20Q224-103 157.50-163Q91-223 13-223Q-20-223-43-220.50Q-66-218-83-207L-56-51Q-43-57-27-59Q-11-61 3-61Q19-61 33-46Q47-31 51-10L121 390M76 410L145 410L71-13Q66-40 46.50-60.50Q27-81 3-81L-41-80L-61-197Q-55-201-35-202Q-15-203 13-203Q87-203 146-150Q205-97 219-17L294 410L384 410L402 510L312 510L319 549Q322 569 340.50 585.50Q359 602 382 602L418 602L437 708L344 708Q281 708 231.50 665Q182 622 171 556L163 510L94 510L76 410Z"  horiz-adv-x="442" vert-adv-y="1000"  />

      
      <glyph glyph-name="uni201E" unicode="&#x201E;" d="M273 0L273 183L473 183L473 14Q473-56 416-108Q359-160 273-160L273-61Q306-53 324.50-37.50Q343-22 348 0L273 0M30 0L30 183L230 183L230 14Q230-56 173-108Q116-160 30-160L30-61Q63-53 81.50-37.50Q100-22 105 0L30 0M293 163L293 20L374 20Q363-23 342.50-46.50Q322-70 293-77L293-138Q359-138 406-93Q453-48 453 14L453 163L293 163M50 163L50 20L131 20Q120-23 99.50-46.50Q79-70 50-77L50-138Q116-138 163-93Q210-48 210 14L210 163L50 163Z"  horiz-adv-x="503" vert-adv-y="1000"  />

      
      <glyph glyph-name="uni2026" unicode="&#x2026;" d="M883 0L683 0L683 183L883 183L883 0M559 0L359 0L359 183L559 183L559 0M235 0L35 0L35 183L235 183L235 0M703 20L863 20L863 163L703 163L703 20M379 20L539 20L539 163L379 163L379 20M55 20L215 20L215 163L55 163L55 20Z"  horiz-adv-x="918" vert-adv-y="1000"  />

      
      <glyph glyph-name="uni2020" unicode="&#x2020;" d="M164 530L164 747L310 747L310 530L474 530L474 390L310 390L310-212L164-212L164 390L0 390L0 530L164 530M184 727L184 510L20 510L20 410L184 410L184-192L290-192L290 410L454 410L454 510L290 510L290 727L184 727Z"  horiz-adv-x="474" vert-adv-y="1000"  />

      
      <glyph glyph-name="uni2021" unicode="&#x2021;" d="M164 530L164 747L310 747L310 530L474 530L474 390L310 390L310 296L474 296L474 156L310 156L310-212L164-212L164 156L0 156L0 296L164 296L164 390L0 390L0 530L164 530M184 727L184 510L20 510L20 410L184 410L184 276L20 276L20 176L184 176L184-192L290-192L290 176L454 176L454 276L290 276L290 410L454 410L454 510L290 510L290 727L184 727Z"  horiz-adv-x="474" vert-adv-y="1000"  />

      
      <glyph glyph-name="uni2030" unicode="&#x2030;" d="M803-10Q744-10 699 37Q654 84 654 144Q654 206 697.50 251.50Q741 297 800 297Q857 297 903 250Q949 203 949 143Q949 81 904.50 35.50Q860-10 803-10M803 102Q820 102 831 114Q842 126 842 143Q842 161 830 173Q818 185 800 185Q784 185 772.50 172.50Q761 160 761 143Q761 126 773 114Q785 102 803 102M150 432Q91 432 46 479Q1 526 1 586Q1 648 44.50 693.50Q88 739 147 739Q204 739 250 692Q296 645 296 585Q296 523 251.50 477.50Q207 432 150 432M150 544Q167 544 178 556Q189 568 189 585Q189 603 177 615Q165 627 147 627Q131 627 119.50 614.50Q108 602 108 585Q108 568 120 556Q132 544 150 544M569 728L162 0L52 0L459 728L569 728M473-10Q414-10 369 37Q324 84 324 144Q324 206 367.50 251.50Q411 297 470 297Q527 297 573 250Q619 203 619 143Q619 81 574.50 35.50Q530-10 473-10M473 102Q490 102 501 114Q512 126 512 143Q512 161 500 173Q488 185 470 185Q454 185 442.50 172.50Q431 160 431 143Q431 126 443 114Q455 102 473 102M803 10Q854 10 891.50 48.50Q929 87 929 143Q929 196 890.50 236.50Q852 277 800 277Q747 277 710.50 238.50Q674 200 674 144Q674 91 712.50 50.50Q751 10 803 10M803 82Q779 82 760 100Q741 118 741 143Q741 165 759 185Q777 205 800 205Q824 205 843 186Q862 167 862 143Q862 121 844.50 101.50Q827 82 803 82M150 452Q201 452 238.50 490.50Q276 529 276 585Q276 638 237.50 678.50Q199 719 147 719Q94 719 57.50 680.50Q21 642 21 586Q21 533 59.50 492.50Q98 452 150 452M150 524Q126 524 107 542Q88 560 88 585Q88 607 106 627Q124 647 147 647Q171 647 190 628Q209 609 209 585Q209 563 191.50 543.50Q174 524 150 524M151 20L535 708L471 708L87 20L151 20M473 10Q524 10 561.50 48.50Q599 87 599 143Q599 196 560.50 236.50Q522 277 470 277Q417 277 380.50 238.50Q344 200 344 144Q344 91 382.50 50.50Q421 10 473 10M473 82Q449 82 430 100Q411 118 411 143Q411 165 429 185Q447 205 470 205Q494 205 513 186Q532 167 532 143Q532 121 514.50 101.50Q497 82 473 82Z"  horiz-adv-x="948" vert-adv-y="1000"  />

      
      <glyph glyph-name="uni2039" unicode="&#x2039;" d="M257 41L15 211L15 341L257 511L257 349L155 276L257 203L257 41M35 221L237 79L237 193L121 276L237 359L237 473L35 331L35 221Z"  horiz-adv-x="272" vert-adv-y="1000"  />

      
      <glyph glyph-name="uni2018" unicode="&#x2018;" d="M230 386L30 386L30 555Q30 625 87 677Q144 729 230 729L230 630Q197 622 178.50 606.50Q160 591 155 569L230 569L230 386M50 406L210 406L210 549L129 549Q140 592 160.50 615.50Q181 639 210 646L210 707Q144 707 97 662Q50 617 50 555L50 406Z"  horiz-adv-x="260" vert-adv-y="1000"  />

      
      <glyph glyph-name="uni2019" unicode="&#x2019;" d="M30 545L30 728L230 728L230 559Q230 489 173 437Q116 385 30 385L30 484Q63 492 81.50 507.50Q100 523 105 545L30 545M50 708L50 565L131 565Q120 522 99.50 498.50Q79 475 50 468L50 407Q116 407 163 452Q210 497 210 559L210 708L50 708Z"  horiz-adv-x="260" vert-adv-y="1000"  />

      
      <glyph glyph-name="uni201C" unicode="&#x201C;" d="M474 405L274 405L274 574Q274 644 331 696Q388 748 474 748L474 649Q441 641 422.50 625.50Q404 610 399 588L474 588L474 405M230 405L30 405L30 574Q30 644 87 696Q144 748 230 748L230 649Q197 641 178.50 625.50Q160 610 155 588L230 588L230 405M294 425L454 425L454 568L373 568Q384 611 404.50 634.50Q425 658 454 665L454 726Q388 726 341 681Q294 636 294 574L294 425M50 425L210 425L210 568L129 568Q140 611 160.50 634.50Q181 658 210 665L210 726Q144 726 97 681Q50 636 50 574L50 425Z"  horiz-adv-x="503" vert-adv-y="1000"  />

      
      <glyph glyph-name="uni201D" unicode="&#x201D;" d="M273 565L273 748L473 748L473 579Q473 509 416 457Q359 405 273 405L273 504Q306 512 324.50 527.50Q343 543 348 565L273 565M30 565L30 748L230 748L230 579Q230 509 173 457Q116 405 30 405L30 504Q63 512 81.50 527.50Q100 543 105 565L30 565M293 728L293 585L374 585Q363 542 342.50 518.50Q322 495 293 488L293 427Q359 427 406 472Q453 517 453 579L453 728L293 728M50 728L50 585L131 585Q120 542 99.50 518.50Q79 495 50 488L50 427Q116 427 163 472Q210 517 210 579L210 728L50 728Z"  horiz-adv-x="503" vert-adv-y="1000"  />

      
      <glyph glyph-name="uni2022" unicode="&#x2022;" d="M125 230Q79 230 41.50 267.50Q4 305 4 351Q4 399 40 435Q76 471 125 471Q172 471 209 435Q246 399 246 351Q246 303 208.50 266.50Q171 230 125 230M125 250Q165 250 195.50 279.50Q226 309 226 351Q226 393 196 422Q166 451 125 451Q84 451 54 422Q24 393 24 351Q24 312 54 281Q84 250 125 250Z"  horiz-adv-x="252" vert-adv-y="1000"  />

      
      <glyph glyph-name="uni2013" unicode="&#x2013;" d="M20 232L20 330L671 330L671 232L20 232M40 310L40 252L651 252L651 310L40 310Z"  horiz-adv-x="691" vert-adv-y="1000"  />

      
      <glyph glyph-name="uni2014" unicode="&#x2014;" d="M20 232L20 330L800 330L800 232L20 232M40 310L40 252L780 252L780 310L40 310Z"  horiz-adv-x="820" vert-adv-y="1000"  />

      
      <glyph glyph-name="uni2122" unicode="&#x2122;" d="M387 613L285 613L285 292L145 292L145 613L20 613L20 728L547 728L630 451L713 728L875 728L875 292L735 292L735 460L687 292L576 292L527 462L527 292L387 292L387 613M265 633L407 633L407 312L507 312L507 599L591 312L672 312L753 599L755 312L855 312L855 708L728 708L631 383L532 708L40 708L40 633L165 633L165 312L265 312L265 633Z"  horiz-adv-x="910" vert-adv-y="1000"  />

      
      <glyph glyph-name="uni203A" unicode="&#x203A;" d="M257 212L15 42L15 204L117 277L15 350L15 512L257 342L257 212M35 80L237 222L237 332L35 474L35 360L151 277L35 194L35 80Z"  horiz-adv-x="272" vert-adv-y="1000"  />

      
      <glyph glyph-name="unia1" unicode="&#xa1;" d="M47 0L47 244L81 510L213 510L247 244L247 0L47 0M247 545L47 545L47 728L247 728L247 545M67 243L67 20L227 20L227 243L195 490L99 490L67 243M67 565L227 565L227 708L67 708L67 565Z"  horiz-adv-x="294" vert-adv-y="1000"  />

      
      <glyph glyph-name="unia2" unicode="&#xa2;" d="M361 346L281 138L299 136Q328 136 350.50 156.50Q373 177 373 216L562 216Q562 106 481 40Q407-20 299-20Q260-20 224-11L178-132L115-132L169 9Q99 43 59.50 108.50Q20 174 20 263Q20 374 101 452Q182 530 298 530Q335 530 366 523L409 636L473 636L422 505Q489 471 520 432Q562 380 562 300L373 300Q373 329 361 346M233 176L309 374L299 374Q256 374 235 343.50Q214 313 214 264Q214 235 218 213.50Q222 192 233 176M254 122L356 383Q376 367 386 346Q393 331 393 320L542 320Q542 370 501 420Q460 470 396 494L444 616L423 616L379 500Q351 506 333.50 508Q316 510 298 510Q189 510 114.50 438.50Q40 367 40 263Q40 94 194 19L144-112L164-112L212 13Q239 6 260.50 3Q282 0 299 0Q398 0 468 52Q542 107 542 196L393 196Q393 162 363.50 139Q334 116 299 116Q291 116 282.50 116.50Q274 117 254 122M338 391L236 129Q212 163 203 197Q194 231 194 264Q194 319 220.50 356.50Q247 394 299 394Q326 394 338 391Z"  horiz-adv-x="579" vert-adv-y="1000"  />

      
      <glyph glyph-name="unia3" unicode="&#xa3;" d="M267 437L426 437L426 316L299 316Q308 307 308 273Q308 244 291 211Q270 172 235 150L237 148Q252 154 273.50 157.50Q295 161 307 161Q343 161 370.50 154.50Q398 148 426 141Q448 141 473 148Q510 159 542 183L598 38Q549 5 502-9Q464-20 421-20Q369-20 289 5Q248 18 226 18Q199 18 167.50 10Q136 2 104-20L19 95Q97 148 132 200Q158 238 158 273Q158 284 155.50 294.50Q153 305 147 316L38 316L38 437L76 437Q67 456 62.50 478Q58 500 58 534Q58 615 118 674Q193 748 332 748Q450 748 516 672Q578 600 578 480L406 480Q406 533 382.50 566.50Q359 600 322 600Q286 600 260.50 578Q235 556 235 525Q235 480 267 437M406 417L257 417Q215 472 215 525Q215 562 248 591Q281 620 322 620Q364 620 395 582Q426 544 426 500L557 500Q557 601 502 662Q442 728 332 728Q201 728 133 662Q78 609 78 534Q78 498 82.50 479Q87 460 107 417L58 417L58 336L159 336Q169 317 173.50 301Q178 285 178 273Q178 233 153 193Q120 140 47 90L109 7Q132 23 166 30.50Q200 38 226 38Q254 38 293 26Q378 0 421 0Q465 0 499 9Q533 18 574 46L533 151Q515 137 480.50 129Q446 121 426 121Q413 121 378 131Q343 141 307 141Q287 141 262.50 138Q238 135 212 125L203 141Q243 169 267 210Q288 246 288 274Q288 289 280.50 304Q273 319 258 336L406 336L406 417Z"  horiz-adv-x="575" vert-adv-y="1000"  />

      
      <glyph glyph-name="unia4" unicode="&#xa4;" d="M253 117Q228 117 200 127Q187 132 153 148L104 103L14 189L64 234Q53 255 46.50 279.50Q40 304 40 330Q40 353 46.50 377Q53 401 64 423L13 471L103 557L154 509Q173 524 199.50 532Q226 540 253 540Q304 540 353 509L401 557L490 471L442 424Q453 404 460.50 379Q468 354 468 330Q468 303 462 281Q456 259 442 234L490 189L401 103L353 148Q321 132 307 127Q279 117 253 117M253 252Q287 252 308.50 274.50Q330 297 330 330Q330 360 308.50 382.50Q287 405 253 405Q219 405 198.50 383.50Q178 362 178 330Q178 299 198.50 275.50Q219 252 253 252M253 137Q279 137 314 152Q332 160 357 172L401 131L461 189L417 230Q448 286 448 330Q448 372 417 428L461 471L401 529L356 484Q324 504 301 512Q278 520 253 520Q226 520 203.50 512.50Q181 505 153 483L103 529L42 471L89 427Q60 369 60 330Q60 287 89 229L43 189L104 130L149 172Q188 153 205 147Q232 137 253 137M253 232Q212 232 185 262Q158 292 158 330Q158 367 185 396Q212 425 253 425Q293 425 321.50 395.50Q350 366 350 330Q350 292 322 262Q294 232 253 232Z"  horiz-adv-x="507" vert-adv-y="1000"  />

      
      <glyph glyph-name="unia5" unicode="&#xa5;" d="M229 0L229 142L63 142L63 270L229 270L213 303L63 303L63 431L142 431L-20 728L212 728L329 465L446 728L678 728L516 431L595 431L595 303L446 303L429 270L595 270L595 142L429 142L429 0L229 0M249 162L249 20L409 20L409 162L575 162L575 250L396 250L434 323L575 323L575 411L482 411L644 708L459 708L329 416L199 708L14 708L176 411L83 411L83 323L226 323L261 250L83 250L83 162L249 162Z"  horiz-adv-x="658" vert-adv-y="1000"  />

      
      <glyph glyph-name="unia6" unicode="&#xa6;" d="M35 827L181 827L181 385L35 385L35 827M35 322L181 322L181-120L35-120L35 322M161 807L55 807L55 405L161 405L161 807M161 302L55 302L55-100L161-100L161 302Z"  horiz-adv-x="216" vert-adv-y="1000"  />

      
      <glyph glyph-name="unia7" unicode="&#xa7;" d="M15 199L204 199Q204 159 227 141Q246 126 277 126Q310 126 328.50 134.50Q347 143 347 164Q347 192 264 214Q138 247 110 260Q27 297 27 363Q27 402 45.50 435.50Q64 469 92 482Q73 490 57 521Q41 552 41 579Q41 662 114 707Q181 748 290 748Q396 748 456 707Q523 662 535 568L357 568Q351 587 331.50 599.50Q312 612 287 612Q260 612 242 603.50Q224 595 224 574Q224 549 307 530Q427 503 461 487Q545 448 545 375Q545 304 504 268Q535 232 535 164Q535 91 463 40.50Q391-10 280-10Q172-10 93.50 51.50Q15 113 15 199M329 334Q346 338 351.50 345.50Q357 353 357 369Q357 380 324 396Q291 412 252 419Q236 411 230 403.50Q224 396 224 383Q224 367 275 350Q290 345 329 334M185 179L36 179Q36 114 108.50 62Q181 10 280 10Q386 10 450.50 53.50Q515 97 515 164Q515 194 506.50 219Q498 244 476 270Q502 293 513.50 318Q525 343 525 375Q525 438 442 472Q441 473 288 515Q204 538 204 574Q204 606 234 621Q256 632 287 632Q316 632 341.50 617Q367 602 371 588L512 588Q503 659 446 693.50Q389 728 290 728Q185 728 126 693Q61 654 61 579Q61 552 79.50 526.50Q98 501 140 483Q88 458 67.50 430Q47 402 47 363Q47 308 130 275Q207 252 287 227.50Q367 203 367 164Q367 134 340.50 120Q314 106 277 106Q241 106 216 122Q185 142 185 179M329 313Q263 332 248 339Q204 358 204 383Q204 401 214.50 414.50Q225 428 249 440Q295 431 336 409.50Q377 388 377 369Q377 348 367 334Q357 320 329 313Z"  horiz-adv-x="578" vert-adv-y="1000"  />

      
      <glyph glyph-name="unia8" unicode="&#xa8;" d="M583 762L383 762L383 945L583 945L583 762M335 762L135 762L135 945L335 945L335 762M45 0L45 728L639 728L639 560L245 560L245 457L609 457L609 289L245 289L245 168L658 168L658 0L45 0M403 782L563 782L563 925L403 925L403 782M155 782L315 782L315 925L155 925L155 782M65 708L65 20L638 20L638 148L225 148L225 309L589 309L589 437L225 437L225 580L619 580L619 708L65 708Z"  horiz-adv-x="665" vert-adv-y="1000"  />

      
      <glyph glyph-name="unia9" unicode="&#xa9;" d="M768 363Q768 204 656 92Q544-20 385-20Q226-20 113 92Q0 204 0 363Q0 522 112.50 634.50Q225 747 384 747Q543 747 655.50 634.50Q768 522 768 363M463 319L606 319Q597 214 536 160Q480 110 390 110Q278 110 214 180.50Q150 251 150 364Q150 470 212.50 543Q275 616 380 616Q477 616 539 563Q606 506 606 409L464 409Q456 451 434.50 470.50Q413 490 380 490Q336 490 316 449Q300 416 300 365Q300 293 323 262Q343 236 380 236Q416 236 436 255Q456 274 463 319M748 363Q748 516 642.50 621.50Q537 727 384 727Q231 727 125.50 621.50Q20 516 20 363Q20 209 125.50 104.50Q231 0 385 0Q538 0 643 105Q748 210 748 363M584 299L480 299Q475 261 447.50 238.50Q420 216 380 216Q323 216 298 268Q280 306 280 365Q280 422 299 459Q325 510 380 510Q416 510 445 488Q474 466 481 429L584 429Q584 506 527 551Q470 596 380 596Q283 596 226.50 530Q170 464 170 364Q170 257 227.50 193.50Q285 130 390 130Q473 130 523 171Q577 215 584 299Z"  horiz-adv-x="768" vert-adv-y="1000"  />

      
      <glyph glyph-name="uniaa" unicode="&#xaa;" d="M80 310L80 413L377 413L377 310L80 310M187 638L80 638Q80 682 122 715Q164 748 220 748Q279 748 318.50 721Q358 694 358 654L358 512Q358 493 362 478.50Q366 464 378 448L264 448Q256 457 253 469Q216 442 168 442Q123 442 95.50 468.50Q68 495 68 534Q68 565 91.50 586.50Q115 608 160 614.50Q205 621 223 626Q253 634 253 650Q253 656 242.50 663Q232 670 220 670Q187 670 187 638M253 554L253 587Q221 575 205 570Q176 559 176 543Q176 525 204 525Q240 525 253 554M100 393L100 330L357 330L357 393L100 393M100 658L167 658Q167 664 184.50 677Q202 690 220 690Q238 690 255.50 677.50Q273 665 273 650Q273 624 235 610Q211 601 167 595Q123 589 105.50 574.50Q88 560 88 534Q88 462 168 462Q191 462 211 470Q231 478 265 503L273 468L339 468Q339 472 340 477Q338 503 338 512L338 654Q338 687 306.50 707.50Q275 728 220 728Q171 728 135.50 705.50Q100 683 100 658M273 620L273 550Q263 528 243.50 516.50Q224 505 204 505Q186 505 173 513Q156 524 156 543Q156 571 195 587.50Q234 604 273 620Z"  horiz-adv-x="441" vert-adv-y="1000"  />

      
      <glyph glyph-name="uniab" unicode="&#xab;" d="M434 42L240 212L240 342L434 512L434 350L352 277L434 204L434 42M209 42L15 212L15 342L209 512L209 350L127 277L209 204L209 42M260 221L414 86L414 195L322 277L414 359L414 468L260 333L260 221M35 221L189 86L189 195L97 277L189 359L189 468L35 333L35 221Z"  horiz-adv-x="449" vert-adv-y="1000"  />

      
      <glyph glyph-name="uniac" unicode="&#xac;" d="M494 300L20 300L20 420L614 420L614 209L494 209L494 300M40 320L514 320L514 229L594 229L594 400L40 400L40 320Z"  horiz-adv-x="644" vert-adv-y="1000"  />

      
      <glyph glyph-name="uniad" unicode="&#xad;" d="M15 321L15 419L645 419L645 321L15 321M35 399L35 341L625 341L625 399L35 399Z"  horiz-adv-x="662" vert-adv-y="1000"  />

      
      <glyph glyph-name="uniae" unicode="&#xae;" d="M296 209Q182 209 101 288Q20 367 20 478Q20 589 101.50 668.50Q183 748 296 748Q410 748 491 669Q572 590 572 478Q572 367 491 288Q410 209 296 209M168 329L168 633L337 633Q381 633 412.50 605Q444 577 444 537Q444 515 430.50 496Q417 477 398 471Q435 455 435 424L435 362Q435 337 452 329L343 329Q329 339 329 363L329 398Q329 408 322 416Q315 424 305 424L272 424L272 329L168 329M272 551L272 494L306 494Q319 494 328 502Q337 510 337 524Q337 535 328 543Q319 551 306 551L272 551M296 229Q404 229 478 301Q552 373 552 478Q552 583 477.50 655.50Q403 728 296 728Q188 728 114 656Q40 584 40 478Q40 373 114 301Q188 229 296 229M188 613L188 349L252 349L252 444L305 444Q324 444 336.50 430.50Q349 417 349 398L349 363L349 349L354 349L420 349Q418 349 416.50 355.50Q415 362 415 374L415 424Q415 436 404 448Q389 464 363 471Q391 478 407.50 496.50Q424 515 424 537Q424 570 399.50 591.50Q375 613 337 613L188 613M252 474L252 571L306 571Q328 571 342.50 557.50Q357 544 357 524Q357 504 342 489Q327 474 306 474L252 474Z"  horiz-adv-x="592" vert-adv-y="1000"  />

      
      <glyph glyph-name="unib0" unicode="&#xb0;" d="M218 369Q139 369 82.50 424.50Q26 480 26 559Q26 637 82.50 692.50Q139 748 218 748Q298 748 354.50 692.50Q411 637 411 559Q411 480 354.50 424.50Q298 369 218 369M218 479Q252 479 276.50 502.50Q301 526 301 559Q301 592 277 615Q253 638 218 638Q184 638 160 615Q136 592 136 559Q136 526 160.50 502.50Q185 479 218 479M218 389Q291 389 341 438Q391 487 391 559Q391 631 341.50 679.50Q292 728 218 728Q144 728 95 680Q46 632 46 559Q46 487 95 438Q144 389 218 389M218 459Q178 459 147 489Q116 519 116 559Q116 598 147 628Q178 658 218 658Q258 658 289.50 628.50Q321 599 321 559Q321 519 290 489Q259 459 218 459Z"  horiz-adv-x="441" vert-adv-y="1000"  />

      
      <glyph glyph-name="unib1" unicode="&#xb1;" d="M236 140L236 363L16 363L16 503L236 503L236 728L384 728L384 503L606 503L606 363L384 363L384 140L606 140L606 0L16 0L16 140L236 140M256 383L256 120L36 120L36 20L586 20L586 120L364 120L364 383L586 383L586 483L364 483L364 708L256 708L256 483L36 483L36 383L256 383Z"  horiz-adv-x="620" vert-adv-y="1000"  />

      
      <glyph glyph-name="unib2" unicode="&#xb2;" d="M373 324L57 324L57 370Q57 436 158.50 504Q260 572 260 603Q260 623 249 637.50Q238 652 216 652Q192 652 181.50 632.50Q171 613 171 577L57 577Q57 654 100 701Q143 748 216 748Q283 748 328 715Q380 677 380 612Q380 544 311 496Q253 457 196 418L373 418L373 324M77 344L353 344L353 398L148 398Q184 434 259 484Q360 551 360 612Q360 668 318.50 698Q277 728 216 728Q152 728 114.50 691.50Q77 655 77 597L151 597Q151 624 165 645Q183 672 216 672Q246 672 263 650Q280 628 280 603Q280 559 178.50 491Q77 423 77 370L77 344Z"  horiz-adv-x="441" vert-adv-y="1000"  />

      
      <glyph glyph-name="unib3" unicode="&#xb3;" d="M222 748Q285 748 327 719Q376 685 376 622Q376 598 364 575.50Q352 553 334 544Q358 536 376 510Q394 484 394 455Q394 388 341 351Q294 318 222 318Q155 318 111 356Q63 398 63 474L172 474Q172 445 185.50 428.50Q199 412 221 412Q242 412 258 424Q274 436 274 456Q274 475 256.50 485.50Q239 496 213 496L184 496L184 580L213 580Q235 580 248.50 590.50Q262 601 262 617Q262 632 250.50 643Q239 654 222 654Q201 654 189 641Q177 628 177 599L70 599Q70 664 110 706Q150 748 222 748M222 728Q157 728 123.50 697.50Q90 667 90 619L157 619Q157 642 176.50 658Q196 674 222 674Q245 674 263.50 656.50Q282 639 282 617Q282 594 261 577Q240 560 213 560L204 560L204 516L213 516Q243 516 268.50 500Q294 484 294 456Q294 429 270.50 410.50Q247 392 221 392Q195 392 173.50 411.50Q152 431 152 454L83 454Q83 399 122 368.50Q161 338 222 338Q290 338 329 365Q374 396 374 455Q374 481 356 500Q334 523 283 540Q323 561 341 583Q356 601 356 622Q356 675 318 701.50Q280 728 222 728Z"  horiz-adv-x="441" vert-adv-y="1000"  />

      
      <glyph glyph-name="unib5" unicode="&#xb5;" d="M35 530L224 530L224 193Q224 174 242 161Q260 148 283 148Q314 148 339.50 166.50Q365 185 365 211L365 530L554 530L554 0L365 0L365 40Q354 18 330 4Q306-10 271-10Q241-10 224 7L224-212L35-212L35 530M204 510L55 510L55-192L204-192L204 55Q221 31 239 20.50Q257 10 271 10Q301 10 327 27Q357 47 383 90L385 20L534 20L534 510L385 510L385 211Q385 177 353 152.50Q321 128 283 128Q253 128 228.50 147Q204 166 204 193L204 510Z"  horiz-adv-x="589" vert-adv-y="1000"  />

      
      <glyph glyph-name="unib6" unicode="&#xb6;" d="M360 606L292 606L292 0L176 0L176 359Q101 368 50.50 419.50Q0 471 0 543Q0 620 59 674Q118 728 201 728L281 728L476 728L476 0L360 0L360 606M272 626L380 626L380 20L456 20L456 708L281 708L201 708Q123 708 71.50 661Q20 614 20 543Q20 477 67 432Q114 387 196 377L196 20L272 20L272 626Z"  horiz-adv-x="521" vert-adv-y="1000"  />

      
      <glyph glyph-name="unib7" unicode="&#xb7;" d="M230 273L30 273L30 456L230 456L230 273M50 293L210 293L210 436L50 436L50 293Z"  horiz-adv-x="250" vert-adv-y="1000"  />

      
      <glyph glyph-name="uni2219" unicode="&#x2219;" d="M230 273L30 273L30 456L230 456L230 273M50 293L210 293L210 436L50 436L50 293Z"  horiz-adv-x="250" vert-adv-y="1000"  />

      
      <glyph glyph-name="unib8" unicode="&#xb8;" d="M500 576L310 576L310 748L500 748L500 576M279 576L89 576L89 748L279 748L279 576M577 220L207 220Q207 181 232.50 153.50Q258 126 295 126Q324 126 348 142Q372 158 380 182L570 182Q559 102 479 46Q399-10 295-10Q179-10 97 73Q15 156 15 273Q15 384 96.50 462Q178 540 295 540Q412 540 494.50 464.50Q577 389 577 282L577 220M207 336L380 336Q376 362 349.50 383Q323 404 291 404Q260 404 235 384Q210 364 207 336M330 596L480 596L480 728L330 728L330 596M109 596L259 596L259 728L109 728L109 596M187 240L557 240L557 282Q557 382 482 451Q407 520 295 520Q184 520 109.50 448.50Q35 377 35 273Q35 162 110 86Q185 10 295 10Q391 10 465 57Q539 104 547 162L395 162Q389 143 357.50 124.50Q326 106 295 106Q250 106 218.50 143.50Q187 181 187 240M403 316L185 316Q190 364 221 394Q252 424 291 424Q330 424 363 394Q396 364 403 316Z"  horiz-adv-x="590" vert-adv-y="1000"  />

      
      <glyph glyph-name="unib9" unicode="&#xb9;" d="M878 131Q819 131 774 178Q729 225 729 285Q729 347 772.50 392.50Q816 438 875 438Q932 438 978 391Q1024 344 1024 284Q1024 222 979.50 176.50Q935 131 878 131M878 243Q895 243 906 255Q917 267 917 284Q917 302 905 314Q893 326 875 326Q859 326 847.50 313.50Q836 301 836 284Q836 267 848 255Q860 243 878 243M736 0L736 103L1017 103L1017 0L736 0M878 151Q929 151 966.50 189.50Q1004 228 1004 284Q1004 337 965.50 377.50Q927 418 875 418Q822 418 785.50 379.50Q749 341 749 285Q749 232 787.50 191.50Q826 151 878 151M878 223Q854 223 835 241Q816 259 816 284Q816 306 834 326Q852 346 875 346Q899 346 918 327Q937 308 937 284Q937 262 919.50 242.50Q902 223 878 223M756 83L756 20L997 20L997 83L756 83M45 0L45 728L246 728L472 333L474 728L674 728L674 0L474 0L247 402L245 0L45 0M65 708L65 20L225 20L225 479L486 20L654 20L654 708L494 708L494 258L234 708L65 708Z"  horiz-adv-x="1044" vert-adv-y="1000"  />

      
      <glyph glyph-name="uniba" unicode="&#xba;" d="M216 441Q157 441 112 488Q67 535 67 595Q67 657 110.50 702.50Q154 748 213 748Q270 748 316 701Q362 654 362 594Q362 532 317.50 486.50Q273 441 216 441M216 553Q233 553 244 565Q255 577 255 594Q255 612 243 624Q231 636 213 636Q197 636 185.50 623.50Q174 611 174 594Q174 577 186 565Q198 553 216 553M74 310L74 413L355 413L355 310L74 310M216 461Q267 461 304.50 499.50Q342 538 342 594Q342 647 303.50 687.50Q265 728 213 728Q160 728 123.50 689.50Q87 651 87 595Q87 542 125.50 501.50Q164 461 216 461M216 533Q192 533 173 551Q154 569 154 594Q154 616 172 636Q190 656 213 656Q237 656 256 637Q275 618 275 594Q275 572 257.50 552.50Q240 533 216 533M94 393L94 330L335 330L335 393L94 393Z"  horiz-adv-x="441" vert-adv-y="1000"  />

      
      <glyph glyph-name="unibb" unicode="&#xbb;" d="M209 212L15 42L15 204L97 277L15 350L15 512L209 342L209 212M434 212L240 42L240 204L322 277L240 350L240 512L434 342L434 212M35 86L189 221L189 333L35 468L35 359L127 277L35 195L35 86M260 86L414 221L414 333L260 468L260 359L352 277L260 195L260 86Z"  horiz-adv-x="449" vert-adv-y="1000"  />

      
      <glyph glyph-name="unibc" unicode="&#xbc;" d="M609 0L609 84L435 84L435 179L593 418L723 418L723 178L771 178L771 84L723 84L723 0L609 0M609 178L609 288L534 178L609 178M572 748L309-20L182-20L444 748L572 748M141 323L141 592L40 592L40 675L83 675Q111 675 135.50 695.50Q160 716 160 747L254 747L254 323L141 323M629 104L629 20L703 20L703 104L751 104L751 158L703 158L703 398L604 398L455 173L455 104L629 104M629 353L629 158L496 158L629 353M295 0L544 728L458 728L210 0L295 0M161 612L161 343L234 343L234 727L180 727Q180 702 147.50 678.50Q115 655 83 655L60 655L60 612L161 612Z"  horiz-adv-x="800" vert-adv-y="1000"  />

      
      <glyph glyph-name="unibd" unicode="&#xbd;" d="M787 0L471 0L471 46Q471 112 572.50 180Q674 248 674 279Q674 299 663 313.50Q652 328 630 328Q606 328 595.50 308.50Q585 289 585 253L471 253Q471 330 514 377Q557 424 630 424Q697 424 742 391Q794 353 794 288Q794 220 725 172Q667 133 610 94L787 94L787 0M572 748L309-20L182-20L444 748L572 748M141 323L141 592L40 592L40 675L83 675Q111 675 135.50 695.50Q160 716 160 747L254 747L254 323L141 323M491 20L767 20L767 74L562 74Q598 110 673 160Q774 227 774 288Q774 344 732.50 374Q691 404 630 404Q566 404 528.50 367.50Q491 331 491 273L565 273Q565 300 579 321Q597 348 630 348Q660 348 677 326Q694 304 694 279Q694 235 592.50 167Q491 99 491 46L491 20M295 0L544 728L458 728L210 0L295 0M161 612L161 343L234 343L234 727L180 727Q180 702 147.50 678.50Q115 655 83 655L60 655L60 612L161 612Z"  horiz-adv-x="836" vert-adv-y="1000"  />

      
      <glyph glyph-name="unibe" unicode="&#xbe;" d="M690 0L690 84L516 84L516 179L674 418L804 418L804 178L852 178L852 84L804 84L804 0L690 0M690 178L690 288L615 178L690 178M653 748L390-20L263-20L525 748L653 748M190 748Q253 748 295 719Q344 685 344 622Q344 598 332 575.50Q320 553 302 544Q326 536 344 510Q362 484 362 455Q362 388 309 351Q262 318 190 318Q123 318 79 356Q31 398 31 474L140 474Q140 445 153.50 428.50Q167 412 189 412Q210 412 226 424Q242 436 242 456Q242 475 224.50 485.50Q207 496 181 496L152 496L152 580L181 580Q203 580 216.50 590.50Q230 601 230 617Q230 632 218.50 643Q207 654 190 654Q169 654 157 641Q145 628 145 599L38 599Q38 664 78 706Q118 748 190 748M710 104L710 20L784 20L784 104L832 104L832 158L784 158L784 398L685 398L536 173L536 104L710 104M710 353L710 158L577 158L710 353M376 0L625 728L539 728L291 0L376 0M190 728Q125 728 91.50 697.50Q58 667 58 619L125 619Q125 642 144.50 658Q164 674 190 674Q213 674 231.50 656.50Q250 639 250 617Q250 594 229 577Q208 560 181 560L172 560L172 516L181 516Q211 516 236.50 500Q262 484 262 456Q262 429 238.50 410.50Q215 392 189 392Q163 392 141.50 411.50Q120 431 120 454L51 454Q51 399 90 368.50Q129 338 190 338Q258 338 297 365Q342 396 342 455Q342 481 324 500Q302 523 251 540Q291 561 309 583Q324 601 324 622Q324 675 286 701.50Q248 728 190 728Z"  horiz-adv-x="886" vert-adv-y="1000"  />

      
      <glyph glyph-name="unibf" unicode="&#xbf;" d="M206 530L382 530L382 448Q382 395 303 323Q224 251 224 208Q224 182 244.50 165.50Q265 149 295 149Q331 149 353 178Q375 207 375 257L565 257Q565 124 488 50Q415-20 297-20Q178-20 101 42Q24 104 24 208Q24 265 71 313Q114 352 158 392Q206 443 206 505L206 530M394 565L194 565L194 748L394 748L394 565M362 510L226 510L226 505Q226 414 135 338Q44 262 44 208Q44 112 114 56Q184 0 297 0Q408 0 476.50 62.50Q545 125 545 237L395 237Q395 195 366.50 162Q338 129 295 129Q258 129 231 151.50Q204 174 204 208Q204 262 283 334Q362 406 362 448L362 510M214 585L374 585L374 728L214 728L214 585Z"  horiz-adv-x="600" vert-adv-y="1000"  />

      
      <glyph glyph-name="unic0" unicode="&#xc0;" d="M-9 0L260 728L466 728L735 0L520 0L477 141L249 141L206 0L-9 0M428 289L365 491L296 289L428 289M274 708L20 20L191 20L234 161L492 161L535 20L706 20L452 708L274 708M455 269L268 269L364 555L455 269Z"  horiz-adv-x="724" vert-adv-y="1000"  />

      
      <glyph glyph-name="uni0410" unicode="&#x0410;" d="M-9 0L260 728L466 728L735 0L520 0L477 141L249 141L206 0L-9 0M428 289L365 491L296 289L428 289M274 708L20 20L191 20L234 161L492 161L535 20L706 20L452 708L274 708M455 269L268 269L364 555L455 269Z"  horiz-adv-x="724" vert-adv-y="1000"  />

      
      <glyph glyph-name="unic1" unicode="&#xc1;" d="M45 0L45 728L586 728L586 560L245 560L245 478L374 478Q482 478 559 408Q636 338 636 240Q636 141 564.50 70.50Q493 0 392 0L45 0M245 310L245 168L343 168Q379 168 403.50 187.50Q428 207 428 236Q428 266 403 288Q378 310 343 310L245 310M65 708L65 20L392 20Q487 20 551.50 83.50Q616 147 616 240Q616 332 547 395Q478 458 374 458L225 458L225 580L566 580L566 708L65 708M225 148L225 330L343 330Q384 330 416 302Q448 274 448 236Q448 200 416 174Q384 148 343 148L225 148Z"  horiz-adv-x="651" vert-adv-y="1000"  />

      
      <glyph glyph-name="uni0411" unicode="&#x0411;" d="M45 0L45 728L586 728L586 560L245 560L245 478L374 478Q482 478 559 408Q636 338 636 240Q636 141 564.50 70.50Q493 0 392 0L45 0M245 310L245 168L343 168Q379 168 403.50 187.50Q428 207 428 236Q428 266 403 288Q378 310 343 310L245 310M65 708L65 20L392 20Q487 20 551.50 83.50Q616 147 616 240Q616 332 547 395Q478 458 374 458L225 458L225 580L566 580L566 708L65 708M225 148L225 330L343 330Q384 330 416 302Q448 274 448 236Q448 200 416 174Q384 148 343 148L225 148Z"  horiz-adv-x="651" vert-adv-y="1000"  />

      
      <glyph glyph-name="unic2" unicode="&#xc2;" d="M45 0L45 728L424 728Q521 728 587 668Q653 608 653 521Q653 481 627.50 438Q602 395 564 375Q618 354 655 308.50Q692 263 692 217Q692 127 627.50 63.50Q563 0 468 0L45 0M245 560L245 451L393 451Q417 451 435 467Q453 483 453 506Q453 529 435.50 544.50Q418 560 393 560L245 560M245 303L245 168L412 168Q443 168 463.50 187.50Q484 207 484 236Q484 263 463 283Q442 303 412 303L245 303M65 708L65 20L468 20Q552 20 612 78Q672 136 672 218Q672 261 629.50 306.50Q587 352 526 372Q571 393 602 435.50Q633 478 633 520Q633 600 573 654Q513 708 424 708L65 708M225 431L225 580L393 580Q427 580 450 559Q473 538 473 507Q473 476 450.50 453.50Q428 431 393 431L225 431M225 148L225 323L412 323Q451 323 477.50 298.50Q504 274 504 237Q504 200 478 174Q452 148 412 148L225 148Z"  horiz-adv-x="715" vert-adv-y="1000"  />

      
      <glyph glyph-name="uni0412" unicode="&#x0412;" d="M45 0L45 728L424 728Q521 728 587 668Q653 608 653 521Q653 481 627.50 438Q602 395 564 375Q618 354 655 308.50Q692 263 692 217Q692 127 627.50 63.50Q563 0 468 0L45 0M245 560L245 451L393 451Q417 451 435 467Q453 483 453 506Q453 529 435.50 544.50Q418 560 393 560L245 560M245 303L245 168L412 168Q443 168 463.50 187.50Q484 207 484 236Q484 263 463 283Q442 303 412 303L245 303M65 708L65 20L468 20Q552 20 612 78Q672 136 672 218Q672 261 629.50 306.50Q587 352 526 372Q571 393 602 435.50Q633 478 633 520Q633 600 573 654Q513 708 424 708L65 708M225 431L225 580L393 580Q427 580 450 559Q473 538 473 507Q473 476 450.50 453.50Q428 431 393 431L225 431M225 148L225 323L412 323Q451 323 477.50 298.50Q504 274 504 237Q504 200 478 174Q452 148 412 148L225 148Z"  horiz-adv-x="715" vert-adv-y="1000"  />

      
      <glyph glyph-name="unic3" unicode="&#xc3;" d="M45 0L45 728L542 728L542 560L245 560L245 0L45 0M65 708L65 20L225 20L225 580L522 580L522 708L65 708Z"  horiz-adv-x="537" vert-adv-y="1000"  />

      
      <glyph glyph-name="uni0413" unicode="&#x0413;" d="M45 0L45 728L542 728L542 560L245 560L245 0L45 0M65 708L65 20L225 20L225 580L522 580L522 708L65 708Z"  horiz-adv-x="537" vert-adv-y="1000"  />

      
      <glyph glyph-name="unic4" unicode="&#xc4;" d="M615 0L190 0L190-212L0-212L0 140Q68 193 106 273Q140 344 140 409L140 728L716 728L716 168L805 168L805-212L615-212L615 0M516 168L516 560L340 560L340 417Q340 274 280 168L516 168M170 20L635 20L635-192L785-192L785 148L696 148L696 708L160 708L160 409Q160 339 126 266Q88 183 20 130L20-192L170-192L170 20M536 580L536 148L246 148Q285 217 302.50 282.50Q320 348 320 417L320 580L536 580Z"  horiz-adv-x="815" vert-adv-y="1000"  />

      
      <glyph glyph-name="uni0414" unicode="&#x0414;" d="M615 0L190 0L190-212L0-212L0 140Q68 193 106 273Q140 344 140 409L140 728L716 728L716 168L805 168L805-212L615-212L615 0M516 168L516 560L340 560L340 417Q340 274 280 168L516 168M170 20L635 20L635-192L785-192L785 148L696 148L696 708L160 708L160 409Q160 339 126 266Q88 183 20 130L20-192L170-192L170 20M536 580L536 148L246 148Q285 217 302.50 282.50Q320 348 320 417L320 580L536 580Z"  horiz-adv-x="815" vert-adv-y="1000"  />

      
      <glyph glyph-name="unic5" unicode="&#xc5;" d="M45 0L45 728L639 728L639 560L245 560L245 457L609 457L609 289L245 289L245 168L659 168L659 0L45 0M65 708L65 20L639 20L639 148L225 148L225 309L589 309L589 437L225 437L225 580L619 580L619 708L65 708Z"  horiz-adv-x="688" vert-adv-y="1000"  />

      
      <glyph glyph-name="uni0415" unicode="&#x0415;" d="M45 0L45 728L639 728L639 560L245 560L245 457L609 457L609 289L245 289L245 168L659 168L659 0L45 0M65 708L65 20L639 20L639 148L225 148L225 309L589 309L589 437L225 437L225 580L619 580L619 708L65 708Z"  horiz-adv-x="688" vert-adv-y="1000"  />

      
      <glyph glyph-name="unic6" unicode="&#xc6;" d="M431 0L431 246L404 278L226 0L-15 0L270 423L-12 728L246 728L429 475L431 728L631 728L631 475L816 728L1074 728L792 423L1077 0L836 0L658 278L631 246L631 0L431 0M451 253L451 20L611 20L611 253L660 312L847 20L1039 20L767 425L1028 708L826 708L613 415L611 708L451 708L451 413L236 708L34 708L295 425L23 20L215 20L402 312L451 253Z"  horiz-adv-x="1062" vert-adv-y="1000"  />

      
      <glyph glyph-name="uni0416" unicode="&#x0416;" d="M431 0L431 246L404 278L226 0L-15 0L270 423L-12 728L246 728L429 475L431 728L631 728L631 475L816 728L1074 728L792 423L1077 0L836 0L658 278L631 246L631 0L431 0M451 253L451 20L611 20L611 253L660 312L847 20L1039 20L767 425L1028 708L826 708L613 415L611 708L451 708L451 413L236 708L34 708L295 425L23 20L215 20L402 312L451 253Z"  horiz-adv-x="1062" vert-adv-y="1000"  />

      
      <glyph glyph-name="unic7" unicode="&#xc7;" d="M243 291L243 449L367 449Q400 449 417 469Q434 489 434 521Q434 553 406.50 571Q379 589 342 589Q294 589 264 566.50Q234 544 230 493L43 493Q43 608 125.50 678.50Q208 749 346 749Q464 749 549 690.50Q634 632 634 540Q634 486 609 440.50Q584 395 543 378Q587 369 626.50 319.50Q666 270 666 217Q666 99 561 35Q471-20 346-20Q211-20 114 54Q17 128 17 233L220 233Q227 180 269 157Q300 140 348 140Q398 140 427 156Q463 176 463 217Q463 247 436 269Q409 291 369 291L243 291M263 429L263 311L369 311Q414 311 448.50 282.50Q483 254 483 217Q483 166 439 141Q402 120 348 120Q279 120 240 149Q208 172 203 213L38 213Q38 128 127.50 64Q217 0 346 0Q467 0 549 49Q646 107 646 217Q646 267 611 310Q572 358 507 376Q562 399 590 447Q614 488 614 540Q614 625 536.50 677Q459 729 346 729Q215 729 139 669Q63 609 63 513L212 513Q212 558 250 583.50Q288 609 342 609Q383 609 418.50 585.50Q454 562 454 521Q454 483 433 458Q409 429 367 429L263 429Z"  horiz-adv-x="684" vert-adv-y="1000"  />

      
      <glyph glyph-name="uni0417" unicode="&#x0417;" d="M243 291L243 449L367 449Q400 449 417 469Q434 489 434 521Q434 553 406.50 571Q379 589 342 589Q294 589 264 566.50Q234 544 230 493L43 493Q43 608 125.50 678.50Q208 749 346 749Q464 749 549 690.50Q634 632 634 540Q634 486 609 440.50Q584 395 543 378Q587 369 626.50 319.50Q666 270 666 217Q666 99 561 35Q471-20 346-20Q211-20 114 54Q17 128 17 233L220 233Q227 180 269 157Q300 140 348 140Q398 140 427 156Q463 176 463 217Q463 247 436 269Q409 291 369 291L243 291M263 429L263 311L369 311Q414 311 448.50 282.50Q483 254 483 217Q483 166 439 141Q402 120 348 120Q279 120 240 149Q208 172 203 213L38 213Q38 128 127.50 64Q217 0 346 0Q467 0 549 49Q646 107 646 217Q646 267 611 310Q572 358 507 376Q562 399 590 447Q614 488 614 540Q614 625 536.50 677Q459 729 346 729Q215 729 139 669Q63 609 63 513L212 513Q212 558 250 583.50Q288 609 342 609Q383 609 418.50 585.50Q454 562 454 521Q454 483 433 458Q409 429 367 429L263 429Z"  horiz-adv-x="684" vert-adv-y="1000"  />

      
      <glyph glyph-name="unic8" unicode="&#xc8;" d="M45 0L45 728L245 728L245 299L498 728L698 728L698 0L498 0L498 434L245 0L45 0M65 708L65 20L233 20L516 509L518 20L678 20L678 708L509 708L227 225L225 708L65 708Z"  horiz-adv-x="743" vert-adv-y="1000"  />

      
      <glyph glyph-name="uni0418" unicode="&#x0418;" d="M45 0L45 728L245 728L245 299L498 728L698 728L698 0L498 0L498 434L245 0L45 0M65 708L65 20L233 20L516 509L518 20L678 20L678 708L509 708L227 225L225 708L65 708Z"  horiz-adv-x="743" vert-adv-y="1000"  />

      
      <glyph glyph-name="unic9" unicode="&#xc9;" d="M364 736Q283 736 227 774Q159 820 159 909L297 909Q297 882 317.50 863.50Q338 845 366 845Q396 845 416.50 863.50Q437 882 437 909L575 909Q575 821 508 775Q451 736 364 736M364 756Q446 756 496 786Q555 821 555 889L457 889Q457 869 427.50 847Q398 825 366 825Q334 825 305.50 847Q277 869 277 889L179 889Q179 823 238 787Q289 756 364 756M45 0L45 728L245 728L245 299L498 728L698 728L698 0L498 0L498 434L245 0L45 0M65 708L65 20L233 20L516 509L518 20L678 20L678 708L509 708L227 225L225 708L65 708Z"  horiz-adv-x="743" vert-adv-y="1000"  />

      
      <glyph glyph-name="uni0419" unicode="&#x0419;" d="M364 736Q283 736 227 774Q159 820 159 909L297 909Q297 882 317.50 863.50Q338 845 366 845Q396 845 416.50 863.50Q437 882 437 909L575 909Q575 821 508 775Q451 736 364 736M364 756Q446 756 496 786Q555 821 555 889L457 889Q457 869 427.50 847Q398 825 366 825Q334 825 305.50 847Q277 869 277 889L179 889Q179 823 238 787Q289 756 364 756M45 0L45 728L245 728L245 299L498 728L698 728L698 0L498 0L498 434L245 0L45 0M65 708L65 20L233 20L516 509L518 20L678 20L678 708L509 708L227 225L225 708L65 708Z"  horiz-adv-x="743" vert-adv-y="1000"  />

      
      <glyph glyph-name="unica" unicode="&#xca;" d="M45 0L45 728L245 728L245 475L479 728L732 728L419 420L746 0L504 0L290 293L245 249L245 0L45 0M65 708L65 20L225 20L225 257L293 323L514 20L705 20L392 422L683 708L488 708L228 425L225 708L65 708Z"  horiz-adv-x="731" vert-adv-y="1000"  />

      
      <glyph glyph-name="uni041A" unicode="&#x041A;" d="M45 0L45 728L245 728L245 475L479 728L732 728L419 420L746 0L504 0L290 293L245 249L245 0L45 0M65 708L65 20L225 20L225 257L293 323L514 20L705 20L392 422L683 708L488 708L228 425L225 708L65 708Z"  horiz-adv-x="731" vert-adv-y="1000"  />

      
      <glyph glyph-name="unicb" unicode="&#xcb;" d="M480 560L318 560L318 393Q318 265 312 218Q299 115 254 59Q199-10 90-10Q58-10 42-8.50Q26-7 0 0L0 168Q17 164 35 161.50Q53 159 65 159Q102 159 113 253Q118 297 118 346L118 728L680 728L680 0L480 0L480 560M298 580L500 580L500 20L660 20L660 708L138 708L138 346Q138 260 127 214Q109 139 65 139Q52 139 39 139Q25 142 20 143L20 15Q32 12 58 11Q84 10 90 10Q188 10 239 74Q279 124 291 223Q298 279 298 393L298 580Z"  horiz-adv-x="725" vert-adv-y="1000"  />

      
      <glyph glyph-name="uni041B" unicode="&#x041B;" d="M480 560L318 560L318 393Q318 265 312 218Q299 115 254 59Q199-10 90-10Q58-10 42-8.50Q26-7 0 0L0 168Q17 164 35 161.50Q53 159 65 159Q102 159 113 253Q118 297 118 346L118 728L680 728L680 0L480 0L480 560M298 580L500 580L500 20L660 20L660 708L138 708L138 346Q138 260 127 214Q109 139 65 139Q52 139 39 139Q25 142 20 143L20 15Q32 12 58 11Q84 10 90 10Q188 10 239 74Q279 124 291 223Q298 279 298 393L298 580Z"  horiz-adv-x="725" vert-adv-y="1000"  />

      
      <glyph glyph-name="unicc" unicode="&#xcc;" d="M45 0L45 728L293 728L434 245L577 728L825 728L825 0L625 0L625 402L521 0L349 0L247 402L245 0L45 0M65 708L65 20L225 20L225 566L365 20L505 20L643 566L645 20L805 20L805 708L592 708L436 174L278 708L65 708Z"  horiz-adv-x="860" vert-adv-y="1000"  />

      
      <glyph glyph-name="uni041C" unicode="&#x041C;" d="M45 0L45 728L293 728L434 245L577 728L825 728L825 0L625 0L625 402L521 0L349 0L247 402L245 0L45 0M65 708L65 20L225 20L225 566L365 20L505 20L643 566L645 20L805 20L805 708L592 708L436 174L278 708L65 708Z"  horiz-adv-x="860" vert-adv-y="1000"  />

      
      <glyph glyph-name="unicd" unicode="&#xcd;" d="M45 0L45 728L245 728L245 466L496 466L496 728L696 728L696 0L496 0L496 298L245 298L245 0L45 0M65 708L65 20L225 20L225 318L516 318L516 20L676 20L676 708L516 708L516 446L225 446L225 708L65 708Z"  horiz-adv-x="741" vert-adv-y="1000"  />

      
      <glyph glyph-name="uni041D" unicode="&#x041D;" d="M45 0L45 728L245 728L245 466L496 466L496 728L696 728L696 0L496 0L496 298L245 298L245 0L45 0M65 708L65 20L225 20L225 318L516 318L516 20L676 20L676 708L516 708L516 446L225 446L225 708L65 708Z"  horiz-adv-x="741" vert-adv-y="1000"  />

      
      <glyph glyph-name="unice" unicode="&#xce;" d="M392-20Q218-20 116 93Q20 199 20 364Q20 522 117 631Q221 748 391 748Q562 748 666 635Q764 528 764 364Q764 199 668 93Q566-20 392-20M393 148Q478 148 520 212Q556 267 556 364Q556 460 522 514Q481 580 393 580Q307 580 265 516Q228 460 228 364Q228 268 265 212Q307 148 393 148M392 0Q558 0 654 106Q744 205 744 364Q744 522 652 622Q555 728 391 728Q229 728 131 619Q40 517 40 364Q40 206 130 106Q226 0 392 0M393 128Q298 128 250 200Q208 262 208 364Q208 465 249 527Q298 600 393 600Q489 600 536 526Q576 463 576 364Q576 263 535 201Q487 128 393 128Z"  horiz-adv-x="784" vert-adv-y="1000"  />

      
      <glyph glyph-name="uni041E" unicode="&#x041E;" d="M392-20Q218-20 116 93Q20 199 20 364Q20 522 117 631Q221 748 391 748Q562 748 666 635Q764 528 764 364Q764 199 668 93Q566-20 392-20M393 148Q478 148 520 212Q556 267 556 364Q556 460 522 514Q481 580 393 580Q307 580 265 516Q228 460 228 364Q228 268 265 212Q307 148 393 148M392 0Q558 0 654 106Q744 205 744 364Q744 522 652 622Q555 728 391 728Q229 728 131 619Q40 517 40 364Q40 206 130 106Q226 0 392 0M393 128Q298 128 250 200Q208 262 208 364Q208 465 249 527Q298 600 393 600Q489 600 536 526Q576 463 576 364Q576 263 535 201Q487 128 393 128Z"  horiz-adv-x="784" vert-adv-y="1000"  />

      
      <glyph glyph-name="unicf" unicode="&#xcf;" d="M45 0L45 728L696 728L696 0L496 0L496 560L245 560L245 0L45 0M65 708L65 20L225 20L225 580L516 580L516 20L676 20L676 708L65 708Z"  horiz-adv-x="731" vert-adv-y="1000"  />

      
      <glyph glyph-name="uni041F" unicode="&#x041F;" d="M45 0L45 728L696 728L696 0L496 0L496 560L245 560L245 0L45 0M65 708L65 20L225 20L225 580L516 580L516 20L676 20L676 708L65 708Z"  horiz-adv-x="731" vert-adv-y="1000"  />

      
      <glyph glyph-name="unid0" unicode="&#xd0;" d="M45 0L45 728L408 728Q512 728 582.50 654.50Q653 581 653 479Q653 377 583 306Q513 235 402 235L245 235L245 0L45 0M245 560L245 403L366 403Q397 403 422 426Q447 449 447 479Q447 513 425.50 536.50Q404 560 369 560L245 560M65 708L65 20L225 20L225 255L402 255Q505 255 569 319Q633 383 633 479Q633 575 569.50 641.50Q506 708 408 708L65 708M225 383L225 580L369 580Q410 580 438.50 549.50Q467 519 467 479Q467 443 435 413Q403 383 366 383L225 383Z"  horiz-adv-x="663" vert-adv-y="1000"  />

      
      <glyph glyph-name="uni0420" unicode="&#x0420;" d="M45 0L45 728L408 728Q512 728 582.50 654.50Q653 581 653 479Q653 377 583 306Q513 235 402 235L245 235L245 0L45 0M245 560L245 403L366 403Q397 403 422 426Q447 449 447 479Q447 513 425.50 536.50Q404 560 369 560L245 560M65 708L65 20L225 20L225 255L402 255Q505 255 569 319Q633 383 633 479Q633 575 569.50 641.50Q506 708 408 708L65 708M225 383L225 580L369 580Q410 580 438.50 549.50Q467 519 467 479Q467 443 435 413Q403 383 366 383L225 383Z"  horiz-adv-x="663" vert-adv-y="1000"  />

      
      <glyph glyph-name="unid1" unicode="&#xd1;" d="M378-20Q210-20 114.50 86Q19 192 19 364Q19 526 112 634Q210 748 370 748Q517 748 610 672Q710 591 710 450L511 450Q502 515 464.50 547.50Q427 580 371 580Q294 580 257 510Q227 454 227 366Q227 273 253 220Q288 148 369 148Q426 148 460.50 181.50Q495 215 511 279L710 279Q710 128 610 49Q522-20 378-20M378 0Q509 0 590 62Q678 130 690 259L527 259Q513 202 474 167Q431 128 369 128Q277 128 237 209Q207 269 207 366Q207 458 241 521Q284 600 371 600Q431 600 475.50 565Q520 530 528 470L690 470Q690 589 599.50 658.50Q509 728 370 728Q218 728 126 621Q39 519 39 364Q39 198 126 101Q217 0 378 0Z"  horiz-adv-x="733" vert-adv-y="1000"  />

      
      <glyph glyph-name="uni0421" unicode="&#x0421;" d="M378-20Q210-20 114.50 86Q19 192 19 364Q19 526 112 634Q210 748 370 748Q517 748 610 672Q710 591 710 450L511 450Q502 515 464.50 547.50Q427 580 371 580Q294 580 257 510Q227 454 227 366Q227 273 253 220Q288 148 369 148Q426 148 460.50 181.50Q495 215 511 279L710 279Q710 128 610 49Q522-20 378-20M378 0Q509 0 590 62Q678 130 690 259L527 259Q513 202 474 167Q431 128 369 128Q277 128 237 209Q207 269 207 366Q207 458 241 521Q284 600 371 600Q431 600 475.50 565Q520 530 528 470L690 470Q690 589 599.50 658.50Q509 728 370 728Q218 728 126 621Q39 519 39 364Q39 198 126 101Q217 0 378 0Z"  horiz-adv-x="733" vert-adv-y="1000"  />

      
      <glyph glyph-name="unid2" unicode="&#xd2;" d="M200 0L200 560L0 560L0 728L600 728L600 560L400 560L400 0L200 0M220 580L220 20L380 20L380 580L580 580L580 708L20 708L20 580L220 580Z"  horiz-adv-x="620" vert-adv-y="1000"  />

      
      <glyph glyph-name="uni0422" unicode="&#x0422;" d="M200 0L200 560L0 560L0 728L600 728L600 560L400 560L400 0L200 0M220 580L220 20L380 20L380 580L580 580L580 708L20 708L20 580L220 580Z"  horiz-adv-x="620" vert-adv-y="1000"  />

      
      <glyph glyph-name="unid3" unicode="&#xd3;" d="M478 727L709 727L416 76Q394 28 348 2Q308-20 262-20Q223-20 195-16.50Q167-13 131 0L131 172Q160 157 180 153Q200 149 219 149Q231 149 239 156.50Q247 164 256 179L260 186L-11 727L228 727L358 408L478 727M492 707L361 353L215 707L21 707L283 185L273 169Q264 152 251 140.50Q238 129 219 129Q196 129 180 130.50Q164 132 151 139L151 14Q173 6 201.50 3Q230 0 262 0Q304 0 338 19Q378 41 398 84L678 707L492 707Z"  horiz-adv-x="690" vert-adv-y="1000"  />

      
      <glyph glyph-name="uni0423" unicode="&#x0423;" d="M478 727L709 727L416 76Q394 28 348 2Q308-20 262-20Q223-20 195-16.50Q167-13 131 0L131 172Q160 157 180 153Q200 149 219 149Q231 149 239 156.50Q247 164 256 179L260 186L-11 727L228 727L358 408L478 727M492 707L361 353L215 707L21 707L283 185L273 169Q264 152 251 140.50Q238 129 219 129Q196 129 180 130.50Q164 132 151 139L151 14Q173 6 201.50 3Q230 0 262 0Q304 0 338 19Q378 41 398 84L678 707L492 707Z"  horiz-adv-x="690" vert-adv-y="1000"  />

      
      <glyph glyph-name="unid4" unicode="&#xd4;" d="M350 0L350 74L315 74Q189 74 99.50 162.50Q10 251 10 371Q10 492 101 583Q192 674 315 674L350 674L350 728L550 728L550 674L585 674Q716 674 805 581Q890 493 890 371Q890 252 808 166Q720 74 585 74L550 74L550 0L350 0M550 506L550 242L557 242Q608 242 646 278Q684 314 684 371Q684 430 648 468Q612 506 557 506L550 506M350 242L350 506L343 506Q292 506 254 467Q216 428 216 371Q216 315 256 277Q293 242 343 242L350 242M370 94L370 20L530 20L530 94L585 94Q711 94 793 179Q870 259 870 371Q870 487 792 568Q710 654 585 654L530 654L530 708L370 708L370 654L315 654Q199 654 114.50 570.50Q30 487 30 371Q30 258 112 176Q194 94 315 94L370 94M530 222L530 526L557 526Q617 526 660.50 480.50Q704 435 704 371Q704 308 659 265Q614 222 557 222L530 222M370 526L370 222L343 222Q287 222 243 263Q196 307 196 371Q196 434 241 480Q286 526 343 526L370 526Z"  horiz-adv-x="900" vert-adv-y="1000"  />

      
      <glyph glyph-name="uni0424" unicode="&#x0424;" d="M350 0L350 74L315 74Q189 74 99.50 162.50Q10 251 10 371Q10 492 101 583Q192 674 315 674L350 674L350 728L550 728L550 674L585 674Q716 674 805 581Q890 493 890 371Q890 252 808 166Q720 74 585 74L550 74L550 0L350 0M550 506L550 242L557 242Q608 242 646 278Q684 314 684 371Q684 430 648 468Q612 506 557 506L550 506M350 242L350 506L343 506Q292 506 254 467Q216 428 216 371Q216 315 256 277Q293 242 343 242L350 242M370 94L370 20L530 20L530 94L585 94Q711 94 793 179Q870 259 870 371Q870 487 792 568Q710 654 585 654L530 654L530 708L370 708L370 654L315 654Q199 654 114.50 570.50Q30 487 30 371Q30 258 112 176Q194 94 315 94L370 94M530 222L530 526L557 526Q617 526 660.50 480.50Q704 435 704 371Q704 308 659 265Q614 222 557 222L530 222M370 526L370 222L343 222Q287 222 243 263Q196 307 196 371Q196 434 241 480Q286 526 343 526L370 526Z"  horiz-adv-x="900" vert-adv-y="1000"  />

      
      <glyph glyph-name="unid5" unicode="&#xd5;" d="M356 508L485 728L711 728L476 368L713 0L485 0L356 211L225 0L-3 0L241 368L4 728L230 728L356 508M496 708L356 468L218 708L41 708L265 368L34 20L214 20L356 249L496 20L676 20L452 368L674 708L496 708Z"  horiz-adv-x="706" vert-adv-y="1000"  />

      
      <glyph glyph-name="uni0425" unicode="&#x0425;" d="M356 508L485 728L711 728L476 368L713 0L485 0L356 211L225 0L-3 0L241 368L4 728L230 728L356 508M496 708L356 468L218 708L41 708L265 368L34 20L214 20L356 249L496 20L676 20L452 368L674 708L496 708Z"  horiz-adv-x="706" vert-adv-y="1000"  />

      
      <glyph glyph-name="unid6" unicode="&#xd6;" d="M45 0L45 728L245 728L245 168L473 168L473 728L673 728L673 168L762 168L762-212L572-212L572 0L45 0M65 708L65 20L592 20L592-192L742-192L742 148L653 148L653 708L493 708L493 148L225 148L225 708L65 708Z"  horiz-adv-x="762" vert-adv-y="1000"  />

      
      <glyph glyph-name="uni0426" unicode="&#x0426;" d="M45 0L45 728L245 728L245 168L473 168L473 728L673 728L673 168L762 168L762-212L572-212L572 0L45 0M65 708L65 20L592 20L592-192L742-192L742 148L653 148L653 708L493 708L493 148L225 148L225 708L65 708Z"  horiz-adv-x="762" vert-adv-y="1000"  />

      
      <glyph glyph-name="unid7" unicode="&#xd7;" d="M436 0L436 253L288 253Q173 253 89 330Q5 407 5 519L5 728L205 728L205 551Q205 497 238 459Q271 421 319 421L436 421L436 728L636 728L636 0L436 0M456 273L456 20L616 20L616 708L456 708L456 401L319 401Q265 401 225 446Q185 491 185 551L185 708L25 708L25 519Q25 415 102 344Q179 273 288 273L456 273Z"  horiz-adv-x="681" vert-adv-y="1000"  />

      
      <glyph glyph-name="uni0427" unicode="&#x0427;" d="M436 0L436 253L288 253Q173 253 89 330Q5 407 5 519L5 728L205 728L205 551Q205 497 238 459Q271 421 319 421L436 421L436 728L636 728L636 0L436 0M456 273L456 20L616 20L616 708L456 708L456 401L319 401Q265 401 225 446Q185 491 185 551L185 708L25 708L25 519Q25 415 102 344Q179 273 288 273L456 273Z"  horiz-adv-x="681" vert-adv-y="1000"  />

      
      <glyph glyph-name="unid8" unicode="&#xd8;" d="M45 0L45 728L245 728L245 168L445 168L445 728L645 728L645 168L845 168L845 728L1045 728L1045 0L45 0M65 708L65 20L1025 20L1025 708L865 708L865 148L625 148L625 708L465 708L465 148L225 148L225 708L65 708Z"  horiz-adv-x="1090" vert-adv-y="1000"  />

      
      <glyph glyph-name="uni0428" unicode="&#x0428;" d="M45 0L45 728L245 728L245 168L445 168L445 728L645 728L645 168L845 168L845 728L1045 728L1045 0L45 0M65 708L65 20L1025 20L1025 708L865 708L865 148L625 148L625 708L465 708L465 148L225 148L225 708L65 708Z"  horiz-adv-x="1090" vert-adv-y="1000"  />

      
      <glyph glyph-name="unid9" unicode="&#xd9;" d="M45 0L45 728L245 728L245 168L445 168L445 728L645 728L645 168L845 168L845 728L1045 728L1045 168L1134 168L1134-212L944-212L944 0L45 0M65 708L65 20L964 20L964-192L1114-192L1114 148L1025 148L1025 708L865 708L865 148L625 148L625 708L465 708L465 148L225 148L225 708L65 708Z"  horiz-adv-x="1134" vert-adv-y="1000"  />

      
      <glyph glyph-name="uni0429" unicode="&#x0429;" d="M45 0L45 728L245 728L245 168L445 168L445 728L645 728L645 168L845 168L845 728L1045 728L1045 168L1134 168L1134-212L944-212L944 0L45 0M65 708L65 20L964 20L964-192L1114-192L1114 148L1025 148L1025 708L865 708L865 148L625 148L625 708L465 708L465 148L225 148L225 708L65 708Z"  horiz-adv-x="1134" vert-adv-y="1000"  />

      
      </font>
</defs>
</svg>
